<mxfile host="app.diagrams.net" modified="2023-01-28T03:35:48.522Z" agent="5.0 (Windows NT 10.0; Win64; x64) AppleWebKit/537.36 (KHTML, like Gecko) Chrome/109.0.0.0 Safari/537.36" etag="WnOV1hHbN3KoWMAxXXLR" version="20.6.2" type="github" pages="3">
  <diagram name="Page-1" id="e3a06f82-3646-2815-327d-82caf3d4e204">
    <mxGraphModel dx="1887" dy="1053" grid="1" gridSize="10" guides="1" tooltips="1" connect="1" arrows="1" fold="1" page="1" pageScale="1.5" pageWidth="1169" pageHeight="826" background="none" math="0" shadow="0">
      <root>
        <mxCell id="0" style=";html=1;" />
        <mxCell id="1" style=";html=1;" parent="0" />
        <mxCell id="6a7d8f32e03d9370-61" value="&lt;font style=&quot;font-size: 30px;&quot;&gt;北次卧&lt;/font&gt;" style="whiteSpace=wrap;html=1;fillColor=#f8cecc;fontSize=14;strokeColor=none;verticalAlign=top;" parent="1" vertex="1">
          <mxGeometry x="1084" y="300" width="493" height="356" as="geometry" />
        </mxCell>
        <mxCell id="6a7d8f32e03d9370-60" value="&lt;font style=&quot;font-size: 30px;&quot;&gt;主卧&lt;/font&gt;" style="whiteSpace=wrap;html=1;fillColor=#d5e8d4;fontSize=14;strokeColor=none;verticalAlign=top;" parent="1" vertex="1">
          <mxGeometry x="1087.25" y="718" width="486.5" height="374" as="geometry" />
        </mxCell>
        <mxCell id="6a7d8f32e03d9370-59" value="&lt;font style=&quot;font-size: 30px;&quot;&gt;弱电箱&lt;/font&gt;" style="whiteSpace=wrap;html=1;fillColor=#EDEDED;fontSize=14;strokeColor=none;verticalAlign=top;" parent="1" vertex="1">
          <mxGeometry x="700" y="228" width="280" height="868" as="geometry" />
        </mxCell>
        <mxCell id="6a7d8f32e03d9370-58" value="&lt;font style=&quot;font-size: 30px;&quot;&gt;客厅&lt;/font&gt;" style="whiteSpace=wrap;html=1;fillColor=#dae8fc;fontSize=14;strokeColor=none;verticalAlign=top;" parent="1" vertex="1">
          <mxGeometry x="190" y="404.5" width="410" height="691.5" as="geometry" />
        </mxCell>
        <mxCell id="6a7d8f32e03d9370-36" style="edgeStyle=none;rounded=0;html=1;startSize=10;endSize=10;jettySize=auto;orthogonalLoop=1;fontSize=14;endArrow=none;endFill=0;strokeWidth=2;entryX=0;entryY=0.7;entryDx=0;entryDy=0;entryPerimeter=0;dashed=1;" parent="1" source="6a7d8f32e03d9370-1" target="mQjbPsuoMKjyH-AcC_ha-4" edge="1">
          <mxGeometry relative="1" as="geometry">
            <mxPoint x="738" y="928.6923076923078" as="targetPoint" />
          </mxGeometry>
        </mxCell>
        <mxCell id="6a7d8f32e03d9370-1" value="" style="verticalLabelPosition=bottom;aspect=fixed;html=1;verticalAlign=top;strokeColor=none;shape=mxgraph.citrix.laptop_2;fillColor=#66B2FF;gradientColor=#0066CC;fontSize=14;" parent="1" vertex="1">
          <mxGeometry x="197.4999999999999" y="854.5" width="116" height="86.5" as="geometry" />
        </mxCell>
        <mxCell id="6a7d8f32e03d9370-6" value="" style="verticalLabelPosition=bottom;aspect=fixed;html=1;verticalAlign=top;strokeColor=none;shape=mxgraph.citrix.pda;fillColor=#66B2FF;gradientColor=#0066CC;fontSize=14;" parent="1" vertex="1">
          <mxGeometry x="240.50000000000006" y="784.5" width="30" height="61" as="geometry" />
        </mxCell>
        <mxCell id="6a7d8f32e03d9370-13" value="&lt;font style=&quot;font-size: 20px;&quot;&gt;光猫&lt;/font&gt;" style="verticalLabelPosition=bottom;aspect=fixed;html=1;verticalAlign=top;strokeColor=none;shape=mxgraph.citrix.router;fillColor=#66B2FF;gradientColor=#0066CC;fontSize=14;" parent="1" vertex="1">
          <mxGeometry x="816" y="526" width="55" height="36.5" as="geometry" />
        </mxCell>
        <mxCell id="6a7d8f32e03d9370-15" value="&lt;font style=&quot;font-size: 20px;&quot;&gt;NAS&lt;/font&gt;" style="verticalLabelPosition=top;aspect=fixed;html=1;verticalAlign=bottom;strokeColor=none;shape=mxgraph.citrix.cache_server;fillColor=#66B2FF;gradientColor=#0066CC;fontSize=14;labelPosition=center;align=center;" parent="1" vertex="1">
          <mxGeometry x="220" y="994.5" width="71" height="97.5" as="geometry" />
        </mxCell>
        <mxCell id="6a7d8f32e03d9370-48" style="edgeStyle=none;rounded=0;html=1;startSize=10;endSize=10;jettySize=auto;orthogonalLoop=1;fontSize=14;endArrow=none;endFill=0;strokeWidth=2;" parent="1" source="6a7d8f32e03d9370-21" target="6a7d8f32e03d9370-13" edge="1">
          <mxGeometry relative="1" as="geometry" />
        </mxCell>
        <mxCell id="mQjbPsuoMKjyH-AcC_ha-10" style="rounded=1;orthogonalLoop=1;jettySize=auto;html=1;strokeWidth=2;fontSize=30;endArrow=none;endFill=0;" parent="1" source="6a7d8f32e03d9370-21" target="YdG63F608O0CDdY9l4GT-1" edge="1">
          <mxGeometry relative="1" as="geometry">
            <mxPoint x="352.5300000000002" y="637.7295081967216" as="targetPoint" />
          </mxGeometry>
        </mxCell>
        <mxCell id="YdG63F608O0CDdY9l4GT-12" value="IPTV" style="edgeLabel;html=1;align=center;verticalAlign=middle;resizable=0;points=[];fontSize=20;fontColor=#000000;" parent="mQjbPsuoMKjyH-AcC_ha-10" vertex="1" connectable="0">
          <mxGeometry x="-0.1726" y="2" relative="1" as="geometry">
            <mxPoint as="offset" />
          </mxGeometry>
        </mxCell>
        <mxCell id="mQjbPsuoMKjyH-AcC_ha-11" style="rounded=1;orthogonalLoop=1;jettySize=auto;html=1;entryX=1;entryY=0.7;entryDx=0;entryDy=0;entryPerimeter=0;strokeWidth=2;fontSize=30;endArrow=none;endFill=0;" parent="1" source="6a7d8f32e03d9370-21" target="mQjbPsuoMKjyH-AcC_ha-4" edge="1">
          <mxGeometry relative="1" as="geometry" />
        </mxCell>
        <mxCell id="6a7d8f32e03d9370-21" value="" style="verticalLabelPosition=bottom;aspect=fixed;html=1;verticalAlign=top;strokeColor=none;shape=mxgraph.citrix.firewall;fillColor=#66B2FF;gradientColor=#0066CC;fontSize=14;" parent="1" vertex="1">
          <mxGeometry x="806" y="730" width="75" height="93" as="geometry" />
        </mxCell>
        <mxCell id="mQjbPsuoMKjyH-AcC_ha-6" style="edgeStyle=orthogonalEdgeStyle;rounded=1;orthogonalLoop=1;jettySize=auto;html=1;entryX=0.552;entryY=0.183;entryDx=0;entryDy=0;entryPerimeter=0;fontSize=30;strokeWidth=2;endArrow=none;endFill=0;" parent="1" source="6a7d8f32e03d9370-30" target="6a7d8f32e03d9370-13" edge="1">
          <mxGeometry relative="1" as="geometry" />
        </mxCell>
        <mxCell id="6a7d8f32e03d9370-30" value="&lt;font style=&quot;font-size: 20px;&quot;&gt;&lt;font style=&quot;font-size: 20px;&quot;&gt;互&lt;/font&gt;&lt;font style=&quot;font-size: 20px;&quot;&gt;联网&lt;/font&gt;&lt;/font&gt;" style="verticalLabelPosition=bottom;aspect=fixed;html=1;verticalAlign=top;strokeColor=none;shape=mxgraph.citrix.web_service;fillColor=#66B2FF;gradientColor=#0066CC;fontSize=14;" parent="1" vertex="1">
          <mxGeometry x="320" y="270" width="63" height="60" as="geometry" />
        </mxCell>
        <mxCell id="6a7d8f32e03d9370-62" value="&lt;font style=&quot;font-size: 40px;&quot;&gt;网络拓扑&lt;br&gt;&lt;/font&gt;" style="text;strokeColor=none;fillColor=none;html=1;fontSize=24;fontStyle=1;verticalAlign=middle;align=center;" parent="1" vertex="1">
          <mxGeometry x="490" y="80" width="861" height="40" as="geometry" />
        </mxCell>
        <mxCell id="mQjbPsuoMKjyH-AcC_ha-19" style="edgeStyle=none;rounded=1;orthogonalLoop=1;jettySize=auto;html=1;entryX=1.019;entryY=0.53;entryDx=0;entryDy=0;entryPerimeter=0;strokeWidth=2;fontSize=30;endArrow=none;endFill=0;" parent="1" source="mQjbPsuoMKjyH-AcC_ha-4" target="6a7d8f32e03d9370-15" edge="1">
          <mxGeometry relative="1" as="geometry" />
        </mxCell>
        <mxCell id="mQjbPsuoMKjyH-AcC_ha-24" style="edgeStyle=none;rounded=1;orthogonalLoop=1;jettySize=auto;html=1;strokeWidth=2;fontSize=20;endArrow=none;endFill=0;dashed=1;" parent="1" source="mQjbPsuoMKjyH-AcC_ha-4" target="mQjbPsuoMKjyH-AcC_ha-32" edge="1">
          <mxGeometry relative="1" as="geometry">
            <mxPoint x="294.9999999999998" y="711.6057416267943" as="targetPoint" />
          </mxGeometry>
        </mxCell>
        <mxCell id="mQjbPsuoMKjyH-AcC_ha-25" style="edgeStyle=none;rounded=1;orthogonalLoop=1;jettySize=auto;html=1;entryX=0.978;entryY=0.574;entryDx=0;entryDy=0;entryPerimeter=0;strokeWidth=2;fontSize=20;endArrow=none;endFill=0;dashed=1;" parent="1" source="mQjbPsuoMKjyH-AcC_ha-4" target="6a7d8f32e03d9370-6" edge="1">
          <mxGeometry relative="1" as="geometry" />
        </mxCell>
        <mxCell id="mQjbPsuoMKjyH-AcC_ha-26" style="edgeStyle=none;rounded=1;orthogonalLoop=1;jettySize=auto;html=1;dashed=1;strokeWidth=2;fontSize=20;endArrow=none;endFill=0;" parent="1" source="mQjbPsuoMKjyH-AcC_ha-4" edge="1">
          <mxGeometry relative="1" as="geometry">
            <mxPoint x="336.0979565868265" y="603" as="targetPoint" />
          </mxGeometry>
        </mxCell>
        <mxCell id="mQjbPsuoMKjyH-AcC_ha-30" style="edgeStyle=none;rounded=1;orthogonalLoop=1;jettySize=auto;html=1;strokeWidth=2;fontSize=20;fontColor=#000000;endArrow=none;endFill=0;exitX=0.98;exitY=0.94;exitDx=0;exitDy=0;exitPerimeter=0;entryX=0.02;entryY=0.94;entryDx=0;entryDy=0;entryPerimeter=0;" parent="1" source="mQjbPsuoMKjyH-AcC_ha-4" target="mQjbPsuoMKjyH-AcC_ha-27" edge="1">
          <mxGeometry relative="1" as="geometry" />
        </mxCell>
        <mxCell id="mQjbPsuoMKjyH-AcC_ha-4" value="&lt;font color=&quot;#000000&quot; style=&quot;font-size: 20px;&quot;&gt;主路由&lt;/font&gt;" style="fontColor=#0066CC;verticalAlign=top;verticalLabelPosition=bottom;labelPosition=center;align=center;html=1;outlineConnect=0;fillColor=#CCCCCC;strokeColor=#6881B3;gradientColor=none;gradientDirection=north;strokeWidth=2;shape=mxgraph.networks.wireless_hub;fontSize=40;" parent="1" vertex="1">
          <mxGeometry x="484" y="834" width="83.5" height="67" as="geometry" />
        </mxCell>
        <mxCell id="YdG63F608O0CDdY9l4GT-6" style="rounded=0;orthogonalLoop=1;jettySize=auto;html=1;entryX=0.122;entryY=0.678;entryDx=0;entryDy=0;entryPerimeter=0;endArrow=none;endFill=0;strokeWidth=2;dashed=1;" parent="1" source="mQjbPsuoMKjyH-AcC_ha-27" target="YdG63F608O0CDdY9l4GT-2" edge="1">
          <mxGeometry relative="1" as="geometry" />
        </mxCell>
        <mxCell id="YdG63F608O0CDdY9l4GT-8" style="edgeStyle=none;rounded=0;orthogonalLoop=1;jettySize=auto;html=1;entryX=0.033;entryY=0.645;entryDx=0;entryDy=0;entryPerimeter=0;endArrow=none;endFill=0;strokeWidth=2;dashed=1;" parent="1" source="mQjbPsuoMKjyH-AcC_ha-27" target="YdG63F608O0CDdY9l4GT-3" edge="1">
          <mxGeometry relative="1" as="geometry" />
        </mxCell>
        <mxCell id="YdG63F608O0CDdY9l4GT-9" style="edgeStyle=none;rounded=0;orthogonalLoop=1;jettySize=auto;html=1;endArrow=none;endFill=0;" parent="1" source="mQjbPsuoMKjyH-AcC_ha-27" target="YdG63F608O0CDdY9l4GT-5" edge="1">
          <mxGeometry relative="1" as="geometry" />
        </mxCell>
        <mxCell id="YdG63F608O0CDdY9l4GT-11" style="edgeStyle=none;rounded=0;orthogonalLoop=1;jettySize=auto;html=1;strokeWidth=2;fontSize=20;fontColor=#000000;endArrow=none;endFill=0;" parent="1" source="mQjbPsuoMKjyH-AcC_ha-27" target="YdG63F608O0CDdY9l4GT-10" edge="1">
          <mxGeometry relative="1" as="geometry" />
        </mxCell>
        <mxCell id="mQjbPsuoMKjyH-AcC_ha-27" value="&lt;font color=&quot;#000000&quot; style=&quot;font-size: 20px;&quot;&gt;子路由&lt;/font&gt;" style="fontColor=#0066CC;verticalAlign=top;verticalLabelPosition=bottom;labelPosition=center;align=center;html=1;outlineConnect=0;fillColor=#CCCCCC;strokeColor=#6881B3;gradientColor=none;gradientDirection=north;strokeWidth=2;shape=mxgraph.networks.wireless_hub;fontSize=40;" parent="1" vertex="1">
          <mxGeometry x="1123.75" y="873.5" width="83.5" height="67" as="geometry" />
        </mxCell>
        <mxCell id="mQjbPsuoMKjyH-AcC_ha-32" value="" style="shape=image;verticalLabelPosition=bottom;verticalAlign=top;imageAspect=0;aspect=fixed;image=data:image/png,iVBORw0KGgoAAAANSUhEUgAAANMAAADICAYAAAByFtSBAAAAAXNSR0IArs4c6QAAHstJREFUeF7tnQl4lMX9x7+zOUiAhEsOIRsI5OCw3iKiVAQvKpANSmn7iMWDf1UE/9VWsVb/aqt41af+i1qPtlSr/yLWbBBvUaochRZFFCGbEGB3A+EIhJybzWbn/8yGhc1mj/d9d+Z995h5Hh4e3d/8Zub7mw8z77zzzhAkSCo0W640AVMBMgKUjgDYHzICBDmcmtBIgU0mQrdnwrPsG/u7xzj5TUo3xcNnnYa0tKUUOI8QnAfKLQ71APYT4AAF9gM4AELes9nL18e7kCReKzghb+5ADzwzvCbvDELJDAAD9asrrTMRMnOX3bpVvzITp6Ric+kUgFj1jAkB7AB5sxP042qH9aN4VCvuYBo9em6/9A73IsB0e9foY1zyek3m6tq3ncbVIP5KLsovW0IofdbImlFgKwheqrJbXzKyHsFlxxFMc9OK8tyLiIncDoqSmEWiMXtgDmooxRuEwAMgUCu/91D6Bf7Wzc7mtD7EpVYqnRTnWfiUS2gBKLlBZfGhzU8oxwTS2gnjDSqt7eCip99J4Yg5k4jJ+xwBzlXumFWdDzHKy4zBkuJho2AqMls+I77nzeRMDCoT9f660rn6AyNbaDhMxWaLBUC5kSLoUraESbzMBL+y2a3LxBcUcbA1pvgic+n9BOS3xpSuc6kSJr0EX2FzWG/Uq7DAcgwbmYrzLGtBMI1Xoz0DcuEZ2B8d/XPhGdAP3qwsXq41+xm0Zu2pvHEE0x2Fxmtz1E1R5/LioMuLAy4v2H9zSwTv2ezWa7j5U+jIEJhK8spWUUKvU1jHkGbu4UPRMr4QrROK0DKhOBZXQvIOWr0W8QzT4iLjgQoU/ngHxab6Dmyq9/j+7Gvxho2LkqdlSuitVfaKF4UEN4xT3WEqyrc8QSju0drIxknnoOGySXAVmLW60CWfhCk2mbc1ePDGPjcq9ru1O6L0Gpuz4j3tDtTl1BWm4rzSW0DIy+GrGH6htHVcIY5Nn4yWM8eqa6FB1hImPsKvO9SBv+51Y2N9hxaHx9NMpmk79739pZbMavPoBtPo4TPz09MyNgN0mJpKerMycXjuNTg+5QI12Qy3lTDxDcEqRzuW7XKhxaPy2UrH5yfdYCrKL3ucUHqvGok7hgzCwestaB07Rk22uLCVMPEPw+Z6Dx7c0Yq9PZ6nIj9FEYJ5lXbrm/xr1N2jLjAV5peON1GyGUBfpQ1qGzMSjnt/ptQ87uwkTOJCMn9LM7bUs00pASniVgr6uc1Rcam4GnV51gWmYnPZcoAuCtmYECLUz5yO+tnTRbddqH8Jk1B58XtbG17Y3a64EAJyc6Wj/M+KM2gwFA5T4Yg5eSaT16G0bk0XnIkDC3+k1Dxu7SRM4kPz0I5W/J89aLUv/Ai12eawThJZK+EwleSXzaWUhpiv9mx1u3k49j1wh8j26uZbwqSP1Hd+1YIP6pSt9JkIzhf5WY1wmIrNpc8A5OfRpKWZGXDcvRCugrxopgnxu4RJnzAdavfiln+3oLKpM3qBgneh6ABT2bcAnRCtpUfKrsTRGcmzsVnCFC3i/H5f6XDjwW9blTgUOtUTCpPS56V28zDYl94GmpGhRJCEsJEw6RumORuasKMx+uiUZjIN37nv7QMiaicWpvzSWSZKVkereN2Ca9E4+bxoZgn1u4RJ33ApHZ28hM6utle8I6J2QmEqMpfdSkBfiFTxljOKUbtkgYi2GepTwqS//EpGJwpyW5Wj/I8iaicYJstvCPDr7hXvvoqXjKMSa6+ESUR3jezz2SoXnq92RTSiwG+rHNYHRNROMEylfyYgET/UqnliKdi3SMmWJEz6R3RbQyfmbWqKAhP9S5Wj4iYRtRMMk+VDAlwZruKJvmUoUkAkTCK6a3SfM79oRFVz+G+hKPBRlcN6VXRP6i1EwxTxII8jpVfg6DWXqa91AuSQMBkTpB5TvaC9ARRYV+WwCul0hsJkv/dWuMbkG6O64FIlTIIFDuN+6zEPfvKv5rCFJy1Myfq8JBcgjAGJlcp2QsxeH/65KWlhsr30mHGqCy5ZjkyCBQ7jvrbNi2nrGlNrZGIreGxkStYkYTImsuxglomfHE8tmNizEntmStYkYTImsp1eivEfJjlMwR9ctJaMhvPuW4xRXIdSJUw6iBymiJL3G7r9Etj3kuKZScIUP2eNs0Mo4+3cPJ7oSZh4qhkHvuTIZFwQJEzGaS+kZAmTEFkVOZUwKZIpcYwkTMbFSsJknPZCSpYwCZFVkVMJkyKZEsdIwmRcrCRMxmkvpGQJkxBZFTmVMCmSKXGMJEzGxUrCZJz2QkqWMAmRVZFTCZMimRLHSMJkXKwkTBy1N7W50LuyBtmVe5C1x4H0401Ib2iEt1cmOnP7wtMvBy3fKwH70lfU91QSJo4BVelKwqRSsFDmpLMT/dduwoC165F+LPw2/MC87AZCdola08SzONTglItUhunzwx6scrZj7cFTxxZfMTQDPzT3wsWnpXPVOZQzCVOMEmftcWLo61b0su/X5Kn57PE4OL8MnTl9NOUPzpSqMD22sw1/3Rv+dopbRvfCL0uyuWgczklSwlRstjwH4HbWaJEbXfts34URy1+NOUDe7Cw477oJrpGxn3eeijA9VdmGV2qiX/Nye2EW7hR4QXUkmAD8yeawCvlcQegZEMV5ZQtB6EsiYRqwdgMGr3w3ZpACHdQ8fi88A/vF5DPVYFJyzFagoOUX52B8blpMGmsZmUCx2Oa0LhdRsFCYSsyzz6cw/VsUTH23fYfhz/+Nuy6ukSPg+OV/gd3MoTWlGkyPfNeG1/dFH5X8et5Y0AtLx4qZ7kUYmRrhJd+31ZZ/rTWukfIJhYkVXGy2/B3APN7TPLbYkL/sBc3PSNHEZBdSs2corSnVYJq7qQnbG6IfnO/X8/wB6Xh9kuJbWVWFIRxMIo9GZhUUDpMPqDzLl5TgnMDCYv3SdsBH6zH4rfdUiazW2HnXzZovp041mH7weSN297i4Obzi43LTYL04R21IFNmHhImQV2z28oWKHGg00gUmVrcis+XXBPiNv56xwGRyuTDqf36vePlbozZoPmsc9i+aryl7qsH0083N+NfRoEubIyh36ZAMvHQen5XT4GKCYfKC3F3tKH9GUyBVZNINpsI8y1QTwWc8YOqzw4YRz65Q0UxtpjQtDbufuR9slU9tSjWY2GXN7NJmpemesVm4uUC9rkr894CJ4rJqp3Wdkryx2CQkTKeVf4SB7wvXxqfr/tuvB3sHpTalGkwNbooL14Y/FShYv6+u6Ife6WK6n4RJRW81P/EisnfvU5FDu+nRH0zFEUvYuwfCOk41mJgQ79d14L+/aokq9nPn9sHlQ7WvlEYrQMIUTaGA3wvufxoZh4+qyKHd9Pgl5+PgDXNUO0hFmJhIbAvRb3e2YX9bz5so8nubcP+4bEwdIg4kVgcJk4ruWrjkIZhcbhU5tJuyDbG1i3+q2kGqwuQXqrzWja8bOtHg9qJ/pgnn9k/D7BGZqnXUkkHCpEI1CZMKsbpWUrtd7ZNq5+Z55QJE+A4jp3n6wNToobDWurHzeCecLi/yskwYkW3CDQW9kCto8YCNaOsOdWBva9c0cXxOGq4YloFpKqaGcmRS0T/kAoQKsTSOTFvqPVj6TSvYrRLBiYG07MzeXBcRalq8uG97C9gev1DpqmGZeOqs3uhlit52CVN0jU5a9HgeUZFXrSl7XmLPTWpTIj8zMZDmbwl/YZhfC16rcofavfjRpuaQ4AbqfuGgNLw6MfquCQmTit6aXbUX5qd8m9GFps4+2ah5+ldgL2/VpkSFiU3tLOubonZspgcbodZelhvzlO+ubS1498CpDwkjab2kKAuLCiO/7JUwqeyt+Y8+h6x9tSpzqTM/PmUiDs63qMt0wjpRYXq71o37trcqbvMdRVlYHKVzR3LmbPNieoTLyYLzDu5FsH5a5M9jJEyKw9dl2O+LLRj6mlVlLnXm9vsXgX2OoSUlKkyPfteGV1V8SjFxYDpeu1D77u81+924+2vl8LJYvDslB4V9w88WJEwaeqzI0SmWUYk1JVFhmr+5GVtUbFiNFSb2DRT7FkpNemNSX5w3IPxZEhImNWqesM2urIH5d69oyBk5S8sZxahdsiAmv4kKUyKMTGum5KBIjkx8do0H9nIRQPG4uDpRYdL7mcnR6sXl/1R2khSL+2mZJmyYnhvxHzo5MsUwDqQfPY7hL/wt5gWJWL6xCq5+osLEVvNKv2jCflfP90vBbcxJJ6i4JMf3IjeWxDbHsk2yShJb7GCLHpGShEmJkhFsiLsDQ1auQb8vfEdOqEre3tk4Nm0y6mdPV5UvknGiwsTapPd7pgNtXvx4czPY35GS0uczCROnbtx71270X7sRfb61gZ0TESl5+uf6vqZtmD4Z7mGDOdWgy00iw+QH6t7trSFHKDYiPc55B0RVc9cOiG+Oh44ZO8TyqbP6IFvBKz8JE9euDPiPSGaHUwYej+zJ7YPOnBy0TCgSdjRyMsDE2sCmfOVON3Y2dvpe4uZkELCzG346StzevLccbqw73IG9J86TGNcvDVcNzVC1dUnCxBkmo90l+shktH6xlC9hikW9OMyb6jC9s9+Nrxo8aOwA+mcSnNM/HdecLvajQH83kDDFIRCxVClVYfrscAfYuyq25B2cRvUx4YHx2bjkNLFQSZhi6blxmDcVYfqwrgNLFJwB8cJ5fVR9n6Q2vBImtYrFuX2qwdTYQXHBJ8pOJ2KbVT++NBfZafJ0Ik3dmOe5eZoqoHOmVIPpxRoXnql0KVaZnTPOzhsXka76vPHkaiDz7wUKqx3W3SLKCvQp5p+GELWWMOFhm9P6kOiAhvKvxxkQC7Y0Y1N9fJzo+rbTjfu+8e9EJ+U2R7n646U0BErCpEE0JVlSbWSKp7PGWXy+bvBg7samSVXOis1K4sXDRsLEQ8UQPlINpus2NoXdvRBKYpG3YPjLIy+t0K1/szJ1K0xO85J7mvfwjja8YVd+P9OCUVm4b5yYs8YlTIJGCKPcptrIxF7QskNRlKa3L87BBEE3B26u92D5bhc213u2Eoo1ej2rypFJafRV2qUaTEyeJ3a14c97oo9OPxudhbtKxI1K7GQltvPdn2wOqy79XJdCWKPkNC+5p3n+jsvOGX8twm3rIq/f9NdBvrRV+S9/vJun4sjkjwnbUrTK4fYd4u9PVwxNxzxzFqYMDn92A6+YSph4KRngJ6P+GAa98ynS64+hd2UN2s2no2PQAN/3S+yrWpEplWEK1DX4LmORmsuRSZC6A9Zu8H2gx75rCpWOTb8Yh+ddI6j0xP84UJgwOjiWIxNHkftu+w7Dn/9bVI/1s6aD/RGR4nlkUnKOgghN9PIpYeKkNBuJRi99MuyIFFzMvgcW+6Z/vJOEibeiyv1JmJRrFdEyd+NWDFvxD8Xejk2fjMPzZiq2V2oYzzDJ+5mURlGdXdItjQ9euQYD1m5UrEJbcQEcv1io2F6poYRJqVL87eTIxEnT4c+/hr7bdir25s3OQvWzDyq2V2ooYVKqFH87CRMnTQe9sxbsj9IkRyalSiWOnYSJU6zY+6Q8FeePi1rRkyMTp4BqcCNh0iBauCzmp19Gtm1PVI9silfz+D1gf/NOEibeiir3J2FSrlVUS7bzYeQjf4i6PO68+xZhOyHiGSb5nilqF9JkkHSreX4VGFDD/vJWyBGqY2B/7F80X8j7JX/5PZ7daGpsdNXUCzlnkiMTZ0H97tgzVC/nAaQfOQZ2QD9bcHDlDxcytQtsQjyPTPI9k5jOlrQjkxi5lHuVMCnXirelHJmiKMo2rvZy1Pl2gLMFA7YFqHHyub5d4CIS29/Xy3Hg5DSxPe90tJUUoPns8YqKS1WYjri92HDEg8pGL460e1Hv9vrOxxvUi/guKps2NEPYF7b+wExb19jttnhTGgp27bXuVRS4GIzifmRiHXrYird8HTs4MajqZ18OtiWIV2J7+4asfBdsW1KoxGCqu/G6qNPEVIOJfcP0pt2NTw9Fv7RsTB8TZpyeiR/l9wI7kJJ3Crr9cIXNYb2Rdxmh/PFvSZhaa/nSVumqHM93RUqW1dmoyDbIRkqpsgBR3dyJ31W6FEEUrNeQXib80JyJxVFuAtQCwlE3xUWftObZnKtqteTXkieuYVLSsf2N5rH7m00lB698V5GO0QBOhZGJgfSTfzXjeAf7BFB7YheZLT+3j3YHYXLKo75OCKN2J0PjRef6pl+xpMI7H4n6birQf6SLpOMZJh7vmdgJQDdsUX4aUbS4fH9wOl4+v280M1W/S5hOyKVmlGBZlEy9IkWCTSkL7ntKVbAijYbxDFOsS+O8QfKLHmu9goMnYTqhiNoNqyxbpJEiGiVqR0LmL9IOimSGac6GJuxojHxfcDS9w/3+yBm9Mc+cqTV7t3wSJs0j0zDse2CJ5iCwVTw2zVOTUnFkWulw48Fv/Yfiq1FLmS07mJIdUMkjSZjkMxOPftTNB89bMESOSv5K8xidPj/swcL/NJe507Bu715rA3dRQziUq3kBoqh5TkvF1bxPD3lw21Z+iw7hOji7//bvF2lfjPhDlQvLq7tOpaLAuiqH9bKUhyl+3zNFn1Im4zPTnV+14IO66C9leXRcBhODSkuS24nCqNa1A2KVbytRcOraATEd7Aw8Xok9Ow1a/UnYcySazx6HuhvnptwOCPYq6YwPdJkt+UJ565gs/LxY23dmEqYoNLApGNv5neU4gM7ebG/ecKF789jqHvvAkP3NEjsBli2/J8PePC3vmQ60eTF1XSOvf7Oi+rnOnIlHz+gd1S6UgYRJk2zxmynZpnnfHvfg2o3in5f8EZ06OB0vanyJK2ESxIV/hDG1uuA9MaK1lhREnabFWh0JU2wKSpgi6Kdlo2ss4WCLF0NX/OPkNC3QF/ts4+CCa4V9ss7KSjaY5DQvem+M66Xx6NUPbaF0FXD/7dcrfgZSW5dk2zUuFyCi94CkhEnpbnN5OlH0DhJocdvWFk2fWqgrpcv61Yl9ceEguTQeUju9pnlq99hFe/mqpSMk4zSPtemd/R34xdctWiVRnK+obxrWTNG+pUguQCiWOrKh2g2y8kRX5cKz75Zmr29CncurPJMGy1h3j0uYNIgeKos8a7ynKsF787S8Z/J7/dOedjy5q41TtHq6KeibhpWT+qJfhvYnEAkTp/DEzcgUfOZ5kpybxxYi5m0U9wnGQxOy8eP8XjH1BglTTPKdyizvZ4o+MsU6jfrkYAcWfcn/2WnBqCzcN07bFqLAVkuYOMEkbw4UDxMr4a972/HYTn7TPXa4yhfTcrn0AgkTFxm7nMg7bbuLyfN7pkDPvFb38nub8PGlfEBi9ZMwcYSJuWLTPXb+Xbjb1kUtifubkWw7IMKFh32S8eh3bTjUrm2FT8TJRBImzjAxd2wnRP9PNvh2mrMd4O3mYWjP69ptznaBi0ypAhPT8HA7xd/t7XjT4VYM1bQhGfhhfiYuG5zBPQwSJu6SGuswnmGKZWk8kqqNHRTrj3RgQ70Huxq7jkY+4vIiO51gcCbBoCwTrh6aifMHpqEkJ01YgCRMwqQ1xnE8wxTrap4xiiovVcKkXKuEsJQwGRcmCZNx2gspOdl2jQsRSZBTCZMgYY1yK0cmo5SXS+PGKS+oZAmTIGEVuJUjkwKREslEwmRctCRMxmkvpGQJkxBZFTmVMCmSKXGM4nkBQtR7pniJjoQpXiLBqR5yZOIkpAY3EiYNosVzFgmTcdGRMBmnvZCSJUxCZFXkNOlhGjuydLLXSzb41XCNyYf93lsViZOIRhImY6Lm9lJ878Pj3Qon1HtWpXP1dtE10v6hvcqalYycVUC9aV0HdwPwDMhFzRNLVXpJHHMJkzGx8t2yvrY7TK00o7fTuYrfl4xhmqYbTHl5c7N7k45uV87Fcm2mMaFSXqqESblWPC3trV5c8c/ACwZorc1RkcezjHC+dIOJVaDYbGF3kvTzV4aNTGyESsYUzzAl89I4u2uX3W7oT0l52ZkPpnzLLlCU+BvKnpnYs1MypniGKZk/wehxEzwhr9js5Qv16GO6jkzBZxEcvnYGjl01RY926l6GhEl3yX0Fsk/oX93XfqpwisU2p3W5HrXRF6Z8y52E4vf+hrWOHQPnXTfr0U7dy5Aw6S65r0B2IRu7scOfOqm3aLdzdbUetdEVpuJRs8aiM21nYMNqnv4VPLnaLwPWQyQtZUiYtKgWW55N9R4s2NLtQrZvbA7rmbF5VZ5bV5hYtYrMlq0EONdfxbqb5qJx0jnKa5wglhIm/QPFzvFj5/n5EyH0qUp7xT161UR3mIrzSpeBkJMvmFrOKEbtkgV6tVe3ciRMukntK4idkMRW8QKPHKOEzKqyl6/Rqya6w1SSN/tqSkzvBzawbsG1aJx8nl5t1qWceN41noyreX+ocmF5tSsgtqTWk5E+oaZmVfc3uAKjrztMrC3FZss/AMzxt4udZ2dfehtoBv8z1ARqF9F1PI9MyfaeKdSoBND7bY6Kx/SMvyEwlYwsm0a9dG1gQ4+UXYmjM6bq2XahZcUzTMk2MgWPShSo6kjDxL17rWyTgG7JEJh8o1Oe5VUQzPe3lKaloXbxDWgdX6Rb40UWJGESqe4p358e6sAdX7agk576f4Tg55V268lXMPrUBDAMpsIRsyaZTGmbAhvKbkHfs+yXerVdaDkSJqHy+pzva+3EdRua0egJJAnbcgYPmbh160sd4mvQvQTDYGLVKMkvfZJS0o2ettH5cCxN/E8zJEziu/KlnzX2uBKUUO/1lc7Vr4svvWcJhsJ0YjHiPQAzAqtWP3M66mdPN0IPbmVKmLhJGdLRvE1N2NbQ2e03AjxY6bD+RmzJ4b0bDpNvhDJb9lGg247XxgvPQt3N84zSJeZyJUwxSxjSQYuH4iebm7GrsTtIAFbYHNYbxZSqzGtcwFQ4Yk6eyeR1BFfZVWBG3Q1z4B4xVFlr4shKwsQ/GN8e92DRl609b3sneM9mt17Dv0R1HuMCJt90L7/sElD6RXD1O/tk48icq3F8ygXqWmawtYSJbwBWOtx4bGcrXEEDEqHkrUpn+Vy+pWnzFjcw+aZ7JbNzvC2mDwnBRcHNaR1XiGPTJ6PlzLHaWqpzLgkTH8EZRCvt7WAf/QUnQunSSmfFE3xKit1LXMHkb06R2fIIAR4I1Ty2KbZh6iS4Rptjb71ADxIm7eKy6dx/jnmwurYjJEQ+z5QutDkrXtFeCv+ccQmTb5Qyl91EKV0GgiGhmu0eOghtxaPR8r0SNJ89nr8yMXqUMCkTsNlDfc9ANc1erDvcgf8c7fS9PwqfaB2luLvKWfGGshL0s4pbmHxAjZxV4O1Mu5MQ3BlNEnaWhGdgf3T0z4VnQD94s7KiZRH++6A1ATumKB62Oa0PCS80RAHBXzhPHJRuRDW6lXmsneKAywsGk6JE0QTQ5zq9eH73/ooei1WKfAg2imuYTk778kovJIQwoH4sWA9x7uMIJnGNFOK5EwTPw9T5vG3vO7uElMDJaULA5G9rcZ5lBghmEmBm8HspTnqIcyNhUqvtFwT42GQyvbtz39tfqs1shH1CwRQoUEle2dUU3jkgpAzAaUaIp6pMCVMkuQ4C9CBAqkHp+0Dm+zbnqlpV+saBccLCFKjdhLy5A9tN7mEmkNOJlwyjhA4DRU4c6NutCkY9MxXmWeLu25Y0pB11Z3Qc3LNn9cF4i5PW+iQFTFobL/NJBXgqIGHiqab0ldIKSJhSOvyy8TwVkDDxVFP6SmkFJEwpHX7ZeJ4KSJh4qil9pbQCEqaUDr9sPE8FJEw81ZS+UloBCVNKh182nqcCEiaeakpfKa2AhCmlwy8bz1MBCRNPNaWvlFZAwpTS4ZeN56mAhImnmtJXSisgYUrp8MvG81RAwsRTTekrpRWQMKV0+GXjeSogYeKppvSV0gpImFI6/LLxPBWQMPFUU/pKaQUkTCkdftl4ngpImHiqKX2ltAISppQOv2w8TwUkTDzVlL5SWgEJU0qHXzaepwISJp5qSl8prYCEKaXDLxvPUwEfTMV5c0eAdPwvgIsBhL+NmaAJFF8TihWVTuuf1FSEnXdtAh4FwZkA+qrJK22lAmEUOAygklDyx0pn+etKVOLdDymw1UTop5X2intIodkyxgRUK6lINxuCy212a8BtXuE9lJjLbqWgL6guQ2aQCihUgBIyq8peviaSudB+SPEwKTFbVlNglsI6B5rZWmnG2U7nqrZIeUeNWpCV2dmwG8BwDWXILFIBRQoQ4J1Kh3V2OGM9+iEpNlvYPTiaOjqh3rMqnau3R2ptYX7peBMlOxQpIo2kArEoQDPywt3rpEc/lDDFEjyZN74UMBqmInNpBQEJOzyGV4vsaKXpFyic5tkAmONLeVmbZFKAgq6uclSURpnmCe2HXat5ZovCK69PVdVL6IRqe8V3SgLiW0Eh+EyJrbSRCmhRgBDvJZX21RsiPnII7IcUuPHke6biPMubIPi+kqVxL8UD1U7rOjWN9s1ZveRluTSuRjVpG0UB39K4mv7Iux/6lsYp3qx0Wp/8f9pxLkHFfAgDAAAAAElFTkSuQmCC;fontSize=20;fontColor=#000000;" parent="1" vertex="1">
          <mxGeometry x="213.29999999999995" y="674.5" width="84.4" height="80" as="geometry" />
        </mxCell>
        <mxCell id="YdG63F608O0CDdY9l4GT-1" value="" style="shape=image;verticalLabelPosition=bottom;labelBackgroundColor=default;verticalAlign=top;aspect=fixed;imageAspect=0;image=data:image/png,iVBORw0KGgoAAAANSUhEUgAAAMgAAADICAYAAACtWK6eAAAAAXNSR0IArs4c6QAAF2JJREFUeF7tnQl0FFXWx//VWYhASIgQIN2JIQGM4IIIOOqInwsMo2zjoIMiCsiiLIqILKIsYTGAYnQQEAExgIB+IKJBFj9BQdRhlAioQNJAkm42IZIESQJJ13deazTdXd2191J965wcNLn3vvv+9/361et6VcWBDlKAFPCqAEfakAKkgHcFCBAaHaSADwUIEBoepAABQmOAFFCmAM0gynQjrzBRgAAJk0JTN5UpQIAo0428wkQBAiRMCk3dVKYAAaJMN/IKEwUIkDApNHVTmQIEiDLdyCtMFCBAwqTQ1E1lChAgynQjrzBRgAAJk0JTN5UpQIAo0428wkQBAiRMCk3dVKYAASKgW1py8pNHi4sXKZM0NL3SU1Ju4nm+c7j1W6xaBIibQgwOjucXsl9bbbaw0IfBAYfjv6zPPM+POGq3h9WHgy9IwmIAiH1K1P69Lhy//26j1Wb7h1T/ULSrC0dt/gTJn5UkQH7XQgCOWpUMC4kTjpqaXHBcM3e4eZ5/8qjdvjgUodcyZwLkdzVbWSyP8MBKL+IaDhJfcDhPtYA2R222fC0HWyjGIkDqVC1cICE4pKNKgLhpZXRIROA4wgM9aOagNYjPjxCjQkJwSJ85ai1pBvGimdEgITjkw8E8CBAfuhkFEoJDGRwEiATdQh0SMTgA3Ge12QokSBGWJjSDSCh7qEJCcEgorogJASJRw1CDhOCQWFgCRBuhWJRWZvMAnuNygv1iIsGhXc1pBpGpZbBDQnDILCjNINoKFswzCcGhfa1pBlGoabDNJASHwkLSDKKPcME0kxAc+tWYZhCV2gZ6JiE4VBaQZhB9BQzkTEJw6F9bmkE00tjfMwnBoVHhaAbxj5D+nEkIDv/VlGYQjbXWeyYhODQuGM0g/hVUz5lEBI7DAHrQxkNt600ziLZ6/hFN65mE4NCpUDSDBEZYLWcSgiNwNaQZRGft1c4kBIfOBaIZJLACq5lJCI7A145mED/VQO5MIvTEwzqp0oLcT3UjQPwktJyZhODwY1HoFCt4xE5PSkrmIiLG8jw/xktWPHi+BhxnAsB+XA+OO8XV1Ay3nDixeSdQHTw9M24mNIPoVNs2SUlNqk2mLhzPt+dNpvbsXwDJXpvjOPZodanZXAawlwf2cTx/wMRxefk22zdSnclOugIEiHStRC3TkpJSTCZTNwfQjQO6AYgTdWIG8uAQDslx33E8v43n+W1Wu32HpHbJSFQBAkRUInGDdItlKIDe+A2KKHGPOhZawOF+JgYc4oFtJp5/O99uz5OVDxm7KECAqBgQaRbLwxwwEsCtSsKYTBFAhAkREZHgIiJhioxwLj8cNTXga6pRw/6trgbvqGEvtlHSxGWO495w8PxCet6uEvnoyYqKVEtPTu7DORwjeI7rKiWAKSIC0Q1iEd2gIerFNkK92DjnjykyUoq70+ZyxUVUXShDVXkZLpWXOf+b/U7icR4ctzCC5xcesdnsEn3IjB49Kn8MpFss8wCME/M0RUWhwZWJqN8k0flvRJS8My+x+OzvFaXncfHcGedPZel5KS5WAM9ZbbYPpBiTDc0gksdA27ZtoyvLypZzQH9fTg2aNkPDZkm6QeGt7VpYyk4Uo7qywme/eGD6UZttmuTOh7EhrUEkFL+V2WxxcNz3HJDgzTy2uRmNkpJRP6GJhIj6mdRcvozyk8UotRfj0q/l3hviuBxrcfFj+mVijMgEiEgdW5nNt/Act8ebWaMWFjSypOKKuPigGhFsUV9mL8IvhVZfa5WtVpute1AlHmTJECA+CpJmNrfhOI7te/I4ous3REJaa7CZI5iP6spKlBzPR6mtUDBNjucnF9jts4O5D4HMjQDxon6G2XxlNcexq9Ut3U3ik1sioWUrRETXC2TtZLV94cxJnCs4jEsXL3j4ccDQApttqayAYWJMgHgpdLrF8gkAj9OP+JSWaNqmXUgOj6ryUtjz9qKmqtIzf47rZy0uXheSHdMxab8Aktq8eWpkZGSqjv3QNjTPd+U57nn3oOzr2sap6dq25edolWWlOGc9BN7hcG/5IAeM9nM6mjRX43CcPHbihOCpsNoGdAMkLS0tznTp0jKe5/8q9KJ6tYmTPyngpkA5OG4/gAXW4uK1WqmjCyCtU1LSHA7HLgBJWiVKcUgBqQrwwLKjNtsQqfa+7DQHJM1iuY4DGMl0kAKBVGCu1WaboDYBTQFhp1VcVVUeOC501htqFST/4FWA5++22u2fqUlQU0DSLZY5AMYLJXRtq1g1eZIvKeBVgYMFXncM7LHabLepkU5TQNKSkzdxPN+zbkItmtTD/HHtcEVMhJo8yZcU8KnAmi12rNtywt3mgtVmU/XJrCkg6RYL20rtsjCfMrwNOlwj7cY6GgOkgBoF+ozZ6+HOmUztCoqKflQaV2tAPO7q2ZjdSWlu5EcKyFLghQWH4H66xQF3FthsO2UFqmNMgChVjvyCTgFDAvL5t+ew71AZjtsv4vgJyXfIBV1xjJBQuqU+WprrIyMtFvfcHNht+0r0NBwgXhZWSrQhH40V6HxtPJ4f0lrjqPqGMxQgQgsqfeWj6EoUCKU1pGEAmZ9jxRfflSipF/n4WYFH7jOjb9fQ2DFkCEDyDpdh2iJdNl76eeiET3PTnrwa7a9uJNhhHxfpdBPI20VnQwCyedcZLFnveXfbuPH/wqDBf9dNVAosrsDsmauwetWnHoYDeyejz53NBQP4ex05c1QGDA3IwveOY9uen13E7tr1JmT/OyRvRRAfdSFmkTk9B+vWuG5fuqvzlXjq4TQCRG0t0y0W0QuFQtPgipyJ6NQ5Q23z5K+BAnv/cwgDH81yicQ+sdknt9BBM4gM0QkQGWIFqSkB4loYv19JpxkkSMn4PS0lgPzgfTet5p3t191s7DUIAaL5mNE0oFxANG1cZTBDfItFgKgcBTq7EyB0iqXzEAvt8AQIARLaI1jn7AkQAkTnIRba4eUCQl/zyqg3fc0rQ6wgNSVAaAYJ0qEZHGkRIARIcIzEIM2CACFAgnRoBkdaBAgBEhwjMUizkAtIMHWDLhQGUzUMmgsBQjOIQYe2Nt0iQAgQbUaSQaMQIASIQYe2Nt2SCwi7UEi7eSVqTxcKJQoVxGZKABF4Jq5uPTT8Lbe0m1e3saNJYAKETrE0GUhGDUKAECBGHdua9IsAIUA0GUhGDSIXEHouloyRQIt0GWIFqalcQIKpG3QlPZiqYdBcCBA6xQqJof3Ggo0YOaqP33MlQAgQvw86uQ0uWrgJC17fgH4P3YUXpz4q112VPQFCgKgaQHo7v7loE15/bcMfzXT7WydMmfooGieoehel5LQJEAJE8mDxt+FbS3KRPf99j2Zv6ni1cyZp3dqse0oECAGi+yBT0sCypZsx/+X3vLq2TGuBF6cMwM1/aaskvGQfAoQAkTxY/GW44u0tmDdnrWhzcfEN8cKUAbj33ptFbZUaECAEiNKxo4vfOyu2Ym7WGlmxJ03uj0cGdJXlI9WYACFApI4V3e1WrdyOl2atFmznb907Y8/uAyi/UCH49+FP9MRTY/6peY4ECAGi+aBSEvDd1Z9i1oxVXuGYnz0Ce748iBnTV6Ko6LSgXd8H78D0zEFKmvfqQ4AQIJoOKCXB1q7dgRnT3vEJR+0ff/qxEJmZOdifZxW0v/ueDpgzdziuqF9PSSoePgQIAaLJQFIa5L21OzBdIhy1bZw6WYIZmTnYuSNPsNn2N7bGnLnDYEluqjStP/wIEAJE9SBSGmD9+59jyotvS5o53I0qKy9hxvQcbPxgt6B/SkozZM0ZihtubKU0PacfAUKAqBpASp03rN+FFycvUwRHXadX5q3D8mWfCMZp2CAGs+cMAzvtUnoQIASI0rGj2O/DD3bj+UlLVcNRG0DsouLUaY/hwX53KsqXACFAFA0cpU4fffglJk54SzM4agOxGWlmZg6qqi4Lxh45+h8YMbK37LQJEAJE9qBR6vDxx19jwrjFmsNRG3DnZ/uQmbkSp0+VCLahZDcwAUKAKB3vsvw2b/4Gz41dpBsctYG/31fg/Br40E9Fgm1169YRr2SPhMkk7YXGBEiIAcIKJvfo1Fn4pfdy49Tay82hpKQMY8cs1B2O2gYKC09j5vQc7Nnzg2CbHTq0xvzXRqFp0zhRCQiQEAOkXcZA0aK6GwwZdh+eGfuAbD8hhzOnf0HvHpNRVn5RdTy2fYRdIdfjYPnNnJaD3NyvBcMPHd4DY57pK9o0ARIGgLAuLnrzGXS54wbRASFmMHrka/js//aJmYn+XU846jY+e+YqrF71qUs+vfrchpeyhormyAwIkDABJMncBLmfZCE6OlLSwBAyUrLTViiOv+CobXvhGx/ijX9/4Pzfdu1SsWT5c4iPayBJBwIkTABh3ezR61bnFgwlB9sD1ff+qUpcXXz8DUdt47X7vT7YNBNt2lgk94MACTFABj6aJam4P585j+PHT3nYKr1o9tCDmdi//6hHPDlfACQkNNJtzSFFlK1b/gMGqJyDAAkxQKQW9+uvfsTjg+Z6mEdEmPDJ1rkwW5pIDeW8L5zdH+5+sIU/+wLAyAcBYlBAWLfqnnvX7WbHTlfjnZWTJI3r3bsOYPjQVzxs2YKfLfyNfhAgBgaEdW3o4y87bzRyP554sidGP+37Djy2bePuO8fil5JyF/eYmGh8lDsbbOFv9IMAMTggdttZ9O41GRUXqzzG8uo1k8HunfB2sG0hbHuI+zFn3nD06HmL0dlw9o8AMTggrHubNn6JSRM9NwgmJydiy3bPdQrzYfdZTBbYcct2xbKFfrgcBEgYAMK6OG3qCry/bqfHuL6/bxfMmDnY5fcn7GfR9e5xHrZXXdUMH3+SJXkfkxEgIkDCBBDWTbZFpKDA7jFuX31tJNgjPWuP/g/NQt6+fA87trBnC/xwOgiQMALkwPdW9PvXDI/xHRUVgT3fvIH69WOcV5zZt1/uB3ukDnu0TrgdBEgYAcK6uvStXLz6iufzbm/vcj2GPdETAx6e5cEAuxi4ImdiuLFBi3SBiku7SUDiUAnWN0yNfDJb8IkgbPv3zz+XevRu6/Z5mjwhRKJsQWVGM0iYzSCsuxcuVKDbXeNQWvar6GBku17Z7tdwPQiQMASEdXnHZ/swasRrPsd9z563IGve8HBlg06xwvUUq7bfc7LWIGfFVkEA4hvH4vNd2YiMjCBA3DaIXtsqFjNHaXuXph4i00s8NVCVbWFnW9ndj+Urxuv+7g0N0tc9BJ1ihekpVm232YOg/95tgosKjw+5F2PHPaj74AuFBgiQMAeEdb/uI0AzMlKwfmNmKIxdv+SoNyDny6txvvwSKqsciI+NQnxsJGLqaXNaS6dYGg6Ric+9iY8++gq5W7KQmtpcw8ihHUprQI7afsXBgnIcKCjH3oPnBcVJSoxBx7bxyEhtgFvbJygWkABRLJ2wI3uBjV5vatI4Vb+F0xKQ97adwIZPT6LykkNy/jdmxGFADzPSLNLuoa8bmACRLDMZKlVAC0BKyi4ja2k+jhSJX3fylucDXVug/33S76VncQgQpVUnP8kKqAVk8+4zWPK/nt8SSk6gjqGlWQwWTLpOsisBIlkqMlSqgBpAik9XYvRLB3w2nZgUjZT0eohrHImio1UoslaiqsL7KVi79FjMGi3tGgwBorTq5CdZATWADJ6ah5JS4afN9x7QFB1vi0VCYpRLLo4aHoUFldiYcwYFP1UK5jl+UCvcekNj0T4QIKISkYFaBZQCwhbk7272vPemYVwkhjzbAq2vre81tZIzl7Foth0nijxvk651WjLleiQm+H4PIwGitvrkL6qAEkC++6kUmW8e8YiddFU9TH411WebUuBgAW6/MQHPPpbuMxYBIlpeMlCrgBJAxr/6I44Uen5jlfV2OmLjvD/6VSoctX0a+2g6unTwfp2EAFFbffIXVUAuIGfOVWHYjP0ecQc+3QKd7mik6LSqfsMINDdH4ehh1zVJ1780xch+3mckAkS0vGSgVgG5gHz2zVm8vuaYS7NNmkdh+sI0xXCMfMGM4mNVWPvmaZcYiQnRWDLF+xP7CRC11Sd/UQXkArLiw2Js3OH6TOQbbm6IYRPMgm35Oq1iMweDI7XNFTieX4l5Ezyvp6yd08Hr3i0CRLS8ZKBWAbmAZK8+hp17z7o02/PhJuje90qPVKTC8ceao3++xzWSxS9cj+ZNhL/NIkDUVp/8RRWQC8i0RYeRd7jMJe6YzGSPr3XlwsECZk8pRv5B1zd7ZT19DTJaNhTsBwEiWl4yUKuAXECylhfg6/2/uDR7/8BE3N3rzwt7SuBgAccKzCDZ49shNUn4mgoBorb65C+qgFxAFr9fiC1fnnGJ2/H2WAx6Jsn5O6Vw2I5V4qVnPdcgK2bc6LyHROggQETLSwZqFZALyJotdqzbcsKlWbbfauqClorhYMG+3H4e7y5y/RaL/X5j9p9PxHTvKwGitvrkL6qAXEAOH7+ACdk/ecRlC/Vvd5cLbh+p+22Vt4SE1h+dro3H5CHen85PgIiWlwzUKiAXENaer02K7vlIgSN33VlsXnfOoyuD+ySj1/94v/uTAFFbffIXVUAJIG9tKELuF26nQzwPcK4P7pQCB0tw5P2HPfKMiTZh9lMZPu80JEBEy0sGahVQAsilagdGzz6A0yWXXJuvA4kUONj9IYtn21BaUu3RjYfvNePBbr8t/L0dBIja6pO/qAJKAGFBv/j2HOav9HwrMH6H5J7ejXF798Zo0sz1fpCaGqAwvwLf7CzD7m3CD3Vok9IAc8e2Fc2dABGViAzUKqAUENbunOUF+Mrtmoh7PmyfVnLLGCQ0jcKxIxWwF1b5vKOQ+S/PbI+ERq5gCfWTAFFbffIXVUANICx4nzF7RduQYzCs71W496+JklwIEEkykZEaBdQCwtpenWvD+9tPqkkDCXFRmD4iA8nNYiTHMQQgs5bmezxALHPGIPzzgTskC0GG+imQm/s1xj+72KWBm6+Lx6THvV9/EMqGXR9ZuqEI+Qoe/SNlQW7YUyyhK6/sPeTf5i3Rr+oUWbICnTo8gYsXXW9UErv+4C14jYPHO5uK8fm3JSgtF36YQ13fNlc1QL/uZnS4Jk5yvnUNDTGD7NpXglfesQoKMGJUH0XCkJM2CixcsFEw0KvPtUNLs/eHLkhp/bfHj5ah1Pls3suorKpBfKNoxDeMRErzK8BesZB4pe+HMoi1YwhA2CfJMy//4PXxMGIi0N/9qwBbILOFcigchgCECb1p5yks31gcCpqHfY7r53dEhEnTV1nqpqlhAGEKzV1hxZ68Et3EosDqFZj99DVo6+XmJPXRtY9gKECYPOybjtWb7dh/xPWONO2lo4hyFGDrgaf7t0TTxurWBHLa1MLWcIDUisKe6Vp88iIKT1VooRPFUKhAuqUBzIkxzp9QPAwLSCgWg3IOPgUIkOCrCWUURAoEPyBm83/BcTfV1Wzo/Sm4r0uzIJKRUjGiAhWVNXho4nceXauJjGx8/Phx4W3CEoTQ9Pu7VhbLMh4Y7N7u5KGt0aldvIR0yIQUkK8Ae3j2W+sLcfKsx9Phd1ltti7yI/7poSkgacnJgzmeX6YmIfIlBbRSgAemH7XZpqmJpykgLJF0s/lDcFwvNUmRLymggQI7rTbbnWrjaA6IExKLhVebGPmTAmoUqI6ISCosLFS35x6ALoCwjrUym5/nOW6Wmk6SLykgVwGe4z4y1av3QEFBgffXVckIqhsgTkiSk7vxwPVwONqB43y/akhG0mRKCrgpwF5vdcBhMh0+VlS0XUt1dAVEy0QpFikQCAUIkECoTm2GjAIESMiUihINhAIESCBUpzZDRgECJGRKRYkGQgECJBCqU5showABEjKlokQDoQABEgjVqc2QUYAACZlSUaKBUIAACYTq1GbIKECAhEypKNFAKECABEJ1ajNkFCBAQqZUlGggFCBAAqE6tRkyChAgIVMqSjQQChAggVCd2gwZBQiQkCkVJRoIBQiQQKhObYaMAv8PBKhCuQB9jQMAAAAASUVORK5CYII=;" parent="1" vertex="1">
          <mxGeometry x="213.3" y="483.5" width="139" height="139" as="geometry" />
        </mxCell>
        <mxCell id="YdG63F608O0CDdY9l4GT-2" value="" style="verticalLabelPosition=bottom;aspect=fixed;html=1;verticalAlign=top;strokeColor=none;shape=mxgraph.citrix.pda;fillColor=#66B2FF;gradientColor=#0066CC;fontSize=14;" parent="1" vertex="1">
          <mxGeometry x="1430.75" y="804" width="30" height="61" as="geometry" />
        </mxCell>
        <mxCell id="YdG63F608O0CDdY9l4GT-3" value="" style="verticalLabelPosition=bottom;aspect=fixed;html=1;verticalAlign=top;strokeColor=none;shape=mxgraph.citrix.pda;fillColor=#66B2FF;gradientColor=#0066CC;fontSize=14;" parent="1" vertex="1">
          <mxGeometry x="1430.75" y="894" width="30" height="61" as="geometry" />
        </mxCell>
        <mxCell id="YdG63F608O0CDdY9l4GT-5" value="" style="verticalLabelPosition=bottom;sketch=0;aspect=fixed;html=1;verticalAlign=top;strokeColor=none;align=center;outlineConnect=0;shape=mxgraph.citrix.tablet_2;" parent="1" vertex="1">
          <mxGeometry x="1430.75" y="980.5" width="82" height="86" as="geometry" />
        </mxCell>
        <mxCell id="YdG63F608O0CDdY9l4GT-10" value="" style="verticalLabelPosition=bottom;sketch=0;aspect=fixed;html=1;verticalAlign=top;strokeColor=none;align=center;outlineConnect=0;shape=mxgraph.citrix.desktop;" parent="1" vertex="1">
          <mxGeometry x="1123.75" y="428" width="89" height="98" as="geometry" />
        </mxCell>
      </root>
    </mxGraphModel>
  </diagram>
  <diagram name="2.5g主机方案" id="pfIGA_WyWTj3yTfIbH0K">
    <mxGraphModel dx="1483" dy="827" grid="1" gridSize="10" guides="1" tooltips="1" connect="1" arrows="1" fold="1" page="1" pageScale="1.5" pageWidth="1169" pageHeight="826" background="none" math="0" shadow="0">
      <root>
        <mxCell id="5B4BbQ4HqVvhWYgyXRDT-0" style=";html=1;" />
        <mxCell id="5B4BbQ4HqVvhWYgyXRDT-1" style=";html=1;" parent="5B4BbQ4HqVvhWYgyXRDT-0" />
        <mxCell id="5B4BbQ4HqVvhWYgyXRDT-2" value="&lt;font style=&quot;font-size: 30px;&quot;&gt;北次卧&lt;/font&gt;" style="whiteSpace=wrap;html=1;fillColor=#f8cecc;fontSize=14;strokeColor=none;verticalAlign=top;" vertex="1" parent="5B4BbQ4HqVvhWYgyXRDT-1">
          <mxGeometry x="1084" y="300" width="493" height="356" as="geometry" />
        </mxCell>
        <mxCell id="5B4BbQ4HqVvhWYgyXRDT-3" value="&lt;font style=&quot;font-size: 30px;&quot;&gt;主卧&lt;/font&gt;" style="whiteSpace=wrap;html=1;fillColor=#d5e8d4;fontSize=14;strokeColor=none;verticalAlign=top;" vertex="1" parent="5B4BbQ4HqVvhWYgyXRDT-1">
          <mxGeometry x="1087.25" y="718" width="486.5" height="402" as="geometry" />
        </mxCell>
        <mxCell id="5B4BbQ4HqVvhWYgyXRDT-4" value="&lt;font style=&quot;font-size: 30px;&quot;&gt;弱电箱&lt;/font&gt;" style="whiteSpace=wrap;html=1;fillColor=#EDEDED;fontSize=14;strokeColor=none;verticalAlign=top;" vertex="1" parent="5B4BbQ4HqVvhWYgyXRDT-1">
          <mxGeometry x="700" y="228" width="280" height="868" as="geometry" />
        </mxCell>
        <mxCell id="5B4BbQ4HqVvhWYgyXRDT-5" value="&lt;font style=&quot;font-size: 30px;&quot;&gt;客厅&lt;/font&gt;" style="whiteSpace=wrap;html=1;fillColor=#dae8fc;fontSize=14;strokeColor=none;verticalAlign=top;" vertex="1" parent="5B4BbQ4HqVvhWYgyXRDT-1">
          <mxGeometry x="190" y="404.5" width="410" height="691.5" as="geometry" />
        </mxCell>
        <mxCell id="5B4BbQ4HqVvhWYgyXRDT-6" style="edgeStyle=none;rounded=0;html=1;startSize=10;endSize=10;jettySize=auto;orthogonalLoop=1;fontSize=14;endArrow=none;endFill=0;strokeWidth=2;entryX=0;entryY=0.7;entryDx=0;entryDy=0;entryPerimeter=0;dashed=1;" edge="1" parent="5B4BbQ4HqVvhWYgyXRDT-1" source="5B4BbQ4HqVvhWYgyXRDT-7" target="5B4BbQ4HqVvhWYgyXRDT-24">
          <mxGeometry relative="1" as="geometry">
            <mxPoint x="738" y="928.6923076923078" as="targetPoint" />
          </mxGeometry>
        </mxCell>
        <mxCell id="5B4BbQ4HqVvhWYgyXRDT-7" value="" style="verticalLabelPosition=bottom;aspect=fixed;html=1;verticalAlign=top;strokeColor=none;shape=mxgraph.citrix.laptop_2;fillColor=#66B2FF;gradientColor=#0066CC;fontSize=14;" vertex="1" parent="5B4BbQ4HqVvhWYgyXRDT-1">
          <mxGeometry x="197.4999999999999" y="854.5" width="116" height="86.5" as="geometry" />
        </mxCell>
        <mxCell id="5B4BbQ4HqVvhWYgyXRDT-8" value="" style="verticalLabelPosition=bottom;aspect=fixed;html=1;verticalAlign=top;strokeColor=none;shape=mxgraph.citrix.pda;fillColor=#66B2FF;gradientColor=#0066CC;fontSize=14;" vertex="1" parent="5B4BbQ4HqVvhWYgyXRDT-1">
          <mxGeometry x="240.50000000000006" y="784.5" width="30" height="61" as="geometry" />
        </mxCell>
        <mxCell id="5B4BbQ4HqVvhWYgyXRDT-9" value="&lt;font style=&quot;font-size: 20px;&quot;&gt;光猫&lt;/font&gt;" style="verticalLabelPosition=bottom;aspect=fixed;html=1;verticalAlign=top;strokeColor=none;shape=mxgraph.citrix.router;fillColor=#66B2FF;gradientColor=#0066CC;fontSize=14;" vertex="1" parent="5B4BbQ4HqVvhWYgyXRDT-1">
          <mxGeometry x="816" y="526" width="55" height="36.5" as="geometry" />
        </mxCell>
        <mxCell id="5B4BbQ4HqVvhWYgyXRDT-10" value="&lt;font style=&quot;font-size: 20px;&quot;&gt;NAS&lt;/font&gt;" style="verticalLabelPosition=top;aspect=fixed;html=1;verticalAlign=bottom;strokeColor=none;shape=mxgraph.citrix.cache_server;fillColor=#66B2FF;gradientColor=#0066CC;fontSize=14;labelPosition=center;align=center;" vertex="1" parent="5B4BbQ4HqVvhWYgyXRDT-1">
          <mxGeometry x="220" y="994.5" width="71" height="97.5" as="geometry" />
        </mxCell>
        <mxCell id="5B4BbQ4HqVvhWYgyXRDT-11" style="edgeStyle=none;rounded=0;html=1;startSize=10;endSize=10;jettySize=auto;orthogonalLoop=1;fontSize=14;endArrow=none;endFill=0;strokeWidth=2;" edge="1" parent="5B4BbQ4HqVvhWYgyXRDT-1" source="5B4BbQ4HqVvhWYgyXRDT-15" target="5B4BbQ4HqVvhWYgyXRDT-9">
          <mxGeometry relative="1" as="geometry" />
        </mxCell>
        <mxCell id="5B4BbQ4HqVvhWYgyXRDT-12" style="rounded=1;orthogonalLoop=1;jettySize=auto;html=1;strokeWidth=2;fontSize=30;endArrow=none;endFill=0;" edge="1" parent="5B4BbQ4HqVvhWYgyXRDT-1" source="5B4BbQ4HqVvhWYgyXRDT-15" target="5B4BbQ4HqVvhWYgyXRDT-31">
          <mxGeometry relative="1" as="geometry">
            <mxPoint x="352.5300000000002" y="637.7295081967216" as="targetPoint" />
          </mxGeometry>
        </mxCell>
        <mxCell id="5B4BbQ4HqVvhWYgyXRDT-13" value="IPTV" style="edgeLabel;html=1;align=center;verticalAlign=middle;resizable=0;points=[];fontSize=20;fontColor=#000000;" vertex="1" connectable="0" parent="5B4BbQ4HqVvhWYgyXRDT-12">
          <mxGeometry x="-0.1726" y="2" relative="1" as="geometry">
            <mxPoint as="offset" />
          </mxGeometry>
        </mxCell>
        <mxCell id="5B4BbQ4HqVvhWYgyXRDT-14" style="rounded=1;orthogonalLoop=1;jettySize=auto;html=1;entryX=1;entryY=0.7;entryDx=0;entryDy=0;entryPerimeter=0;strokeWidth=2;fontSize=30;endArrow=none;endFill=0;" edge="1" parent="5B4BbQ4HqVvhWYgyXRDT-1" source="5B4BbQ4HqVvhWYgyXRDT-15" target="5B4BbQ4HqVvhWYgyXRDT-24">
          <mxGeometry relative="1" as="geometry" />
        </mxCell>
        <mxCell id="5B4BbQ4HqVvhWYgyXRDT-15" value="" style="verticalLabelPosition=bottom;aspect=fixed;html=1;verticalAlign=top;strokeColor=none;shape=mxgraph.citrix.firewall;fillColor=#66B2FF;gradientColor=#0066CC;fontSize=14;" vertex="1" parent="5B4BbQ4HqVvhWYgyXRDT-1">
          <mxGeometry x="806" y="730" width="75" height="93" as="geometry" />
        </mxCell>
        <mxCell id="5B4BbQ4HqVvhWYgyXRDT-16" style="edgeStyle=orthogonalEdgeStyle;rounded=1;orthogonalLoop=1;jettySize=auto;html=1;entryX=0.552;entryY=0.183;entryDx=0;entryDy=0;entryPerimeter=0;fontSize=30;strokeWidth=2;endArrow=none;endFill=0;" edge="1" parent="5B4BbQ4HqVvhWYgyXRDT-1" source="5B4BbQ4HqVvhWYgyXRDT-17" target="5B4BbQ4HqVvhWYgyXRDT-9">
          <mxGeometry relative="1" as="geometry" />
        </mxCell>
        <mxCell id="5B4BbQ4HqVvhWYgyXRDT-17" value="&lt;font style=&quot;font-size: 20px;&quot;&gt;&lt;font style=&quot;font-size: 20px;&quot;&gt;互&lt;/font&gt;&lt;font style=&quot;font-size: 20px;&quot;&gt;联网&lt;/font&gt;&lt;/font&gt;" style="verticalLabelPosition=bottom;aspect=fixed;html=1;verticalAlign=top;strokeColor=none;shape=mxgraph.citrix.web_service;fillColor=#66B2FF;gradientColor=#0066CC;fontSize=14;" vertex="1" parent="5B4BbQ4HqVvhWYgyXRDT-1">
          <mxGeometry x="320" y="270" width="63" height="60" as="geometry" />
        </mxCell>
        <mxCell id="5B4BbQ4HqVvhWYgyXRDT-18" value="&lt;font style=&quot;font-size: 40px;&quot;&gt;网络拓扑&lt;br&gt;&lt;/font&gt;" style="text;strokeColor=none;fillColor=none;html=1;fontSize=24;fontStyle=1;verticalAlign=middle;align=center;" vertex="1" parent="5B4BbQ4HqVvhWYgyXRDT-1">
          <mxGeometry x="490" y="80" width="861" height="40" as="geometry" />
        </mxCell>
        <mxCell id="5B4BbQ4HqVvhWYgyXRDT-19" style="edgeStyle=none;rounded=1;orthogonalLoop=1;jettySize=auto;html=1;entryX=1.019;entryY=0.53;entryDx=0;entryDy=0;entryPerimeter=0;strokeWidth=2;fontSize=30;endArrow=none;endFill=0;" edge="1" parent="5B4BbQ4HqVvhWYgyXRDT-1" source="5B4BbQ4HqVvhWYgyXRDT-24" target="5B4BbQ4HqVvhWYgyXRDT-10">
          <mxGeometry relative="1" as="geometry" />
        </mxCell>
        <mxCell id="5B4BbQ4HqVvhWYgyXRDT-20" style="edgeStyle=none;rounded=1;orthogonalLoop=1;jettySize=auto;html=1;strokeWidth=2;fontSize=20;endArrow=none;endFill=0;dashed=1;" edge="1" parent="5B4BbQ4HqVvhWYgyXRDT-1" source="5B4BbQ4HqVvhWYgyXRDT-24" target="5B4BbQ4HqVvhWYgyXRDT-30">
          <mxGeometry relative="1" as="geometry">
            <mxPoint x="294.9999999999998" y="711.6057416267943" as="targetPoint" />
          </mxGeometry>
        </mxCell>
        <mxCell id="5B4BbQ4HqVvhWYgyXRDT-21" style="edgeStyle=none;rounded=1;orthogonalLoop=1;jettySize=auto;html=1;entryX=0.978;entryY=0.574;entryDx=0;entryDy=0;entryPerimeter=0;strokeWidth=2;fontSize=20;endArrow=none;endFill=0;dashed=1;" edge="1" parent="5B4BbQ4HqVvhWYgyXRDT-1" source="5B4BbQ4HqVvhWYgyXRDT-24" target="5B4BbQ4HqVvhWYgyXRDT-8">
          <mxGeometry relative="1" as="geometry" />
        </mxCell>
        <mxCell id="5B4BbQ4HqVvhWYgyXRDT-22" style="edgeStyle=none;rounded=1;orthogonalLoop=1;jettySize=auto;html=1;dashed=1;strokeWidth=2;fontSize=20;endArrow=none;endFill=0;" edge="1" parent="5B4BbQ4HqVvhWYgyXRDT-1" source="5B4BbQ4HqVvhWYgyXRDT-24">
          <mxGeometry relative="1" as="geometry">
            <mxPoint x="336.0979565868265" y="603" as="targetPoint" />
          </mxGeometry>
        </mxCell>
        <mxCell id="5B4BbQ4HqVvhWYgyXRDT-23" style="edgeStyle=none;rounded=1;orthogonalLoop=1;jettySize=auto;html=1;strokeWidth=2;fontSize=20;fontColor=#000000;endArrow=none;endFill=0;exitX=0.98;exitY=0.94;exitDx=0;exitDy=0;exitPerimeter=0;entryX=0;entryY=0.5;entryDx=0;entryDy=0;entryPerimeter=0;" edge="1" parent="5B4BbQ4HqVvhWYgyXRDT-1" source="5B4BbQ4HqVvhWYgyXRDT-24" target="3EFMnFiPQf6GanfPD14e-0">
          <mxGeometry relative="1" as="geometry" />
        </mxCell>
        <mxCell id="5B4BbQ4HqVvhWYgyXRDT-24" value="&lt;font color=&quot;#000000&quot; style=&quot;font-size: 20px;&quot;&gt;主路由&lt;/font&gt;" style="fontColor=#0066CC;verticalAlign=top;verticalLabelPosition=bottom;labelPosition=center;align=center;html=1;outlineConnect=0;fillColor=#CCCCCC;strokeColor=#6881B3;gradientColor=none;gradientDirection=north;strokeWidth=2;shape=mxgraph.networks.wireless_hub;fontSize=40;" vertex="1" parent="5B4BbQ4HqVvhWYgyXRDT-1">
          <mxGeometry x="484" y="834" width="83.5" height="67" as="geometry" />
        </mxCell>
        <mxCell id="5B4BbQ4HqVvhWYgyXRDT-25" style="rounded=0;orthogonalLoop=1;jettySize=auto;html=1;entryX=0.122;entryY=0.678;entryDx=0;entryDy=0;entryPerimeter=0;endArrow=none;endFill=0;strokeWidth=2;dashed=1;" edge="1" parent="5B4BbQ4HqVvhWYgyXRDT-1" source="5B4BbQ4HqVvhWYgyXRDT-29" target="5B4BbQ4HqVvhWYgyXRDT-32">
          <mxGeometry relative="1" as="geometry" />
        </mxCell>
        <mxCell id="5B4BbQ4HqVvhWYgyXRDT-26" style="edgeStyle=none;rounded=0;orthogonalLoop=1;jettySize=auto;html=1;entryX=0.033;entryY=0.645;entryDx=0;entryDy=0;entryPerimeter=0;endArrow=none;endFill=0;strokeWidth=2;dashed=1;" edge="1" parent="5B4BbQ4HqVvhWYgyXRDT-1" source="5B4BbQ4HqVvhWYgyXRDT-29" target="5B4BbQ4HqVvhWYgyXRDT-33">
          <mxGeometry relative="1" as="geometry" />
        </mxCell>
        <mxCell id="5B4BbQ4HqVvhWYgyXRDT-27" style="edgeStyle=none;rounded=0;orthogonalLoop=1;jettySize=auto;html=1;endArrow=none;endFill=0;" edge="1" parent="5B4BbQ4HqVvhWYgyXRDT-1" source="5B4BbQ4HqVvhWYgyXRDT-29" target="5B4BbQ4HqVvhWYgyXRDT-34">
          <mxGeometry relative="1" as="geometry" />
        </mxCell>
        <mxCell id="5B4BbQ4HqVvhWYgyXRDT-28" style="edgeStyle=none;rounded=0;orthogonalLoop=1;jettySize=auto;html=1;strokeWidth=2;fontSize=20;fontColor=#000000;endArrow=none;endFill=0;startArrow=none;" edge="1" parent="5B4BbQ4HqVvhWYgyXRDT-1" source="3EFMnFiPQf6GanfPD14e-0" target="5B4BbQ4HqVvhWYgyXRDT-35">
          <mxGeometry relative="1" as="geometry" />
        </mxCell>
        <mxCell id="5B4BbQ4HqVvhWYgyXRDT-29" value="&lt;font color=&quot;#000000&quot; style=&quot;font-size: 20px;&quot;&gt;子路由&lt;/font&gt;" style="fontColor=#0066CC;verticalAlign=top;verticalLabelPosition=bottom;labelPosition=center;align=center;html=1;outlineConnect=0;fillColor=#CCCCCC;strokeColor=#6881B3;gradientColor=none;gradientDirection=north;strokeWidth=2;shape=mxgraph.networks.wireless_hub;fontSize=40;" vertex="1" parent="5B4BbQ4HqVvhWYgyXRDT-1">
          <mxGeometry x="1129.25" y="999.5" width="83.5" height="67" as="geometry" />
        </mxCell>
        <mxCell id="5B4BbQ4HqVvhWYgyXRDT-30" value="" style="shape=image;verticalLabelPosition=bottom;verticalAlign=top;imageAspect=0;aspect=fixed;image=data:image/png,iVBORw0KGgoAAAANSUhEUgAAANMAAADICAYAAAByFtSBAAAAAXNSR0IArs4c6QAAHstJREFUeF7tnQl4lMX9x7+zOUiAhEsOIRsI5OCw3iKiVAQvKpANSmn7iMWDf1UE/9VWsVb/aqt41af+i1qPtlSr/yLWbBBvUaochRZFFCGbEGB3A+EIhJybzWbn/8yGhc1mj/d9d+Z995h5Hh4e3d/8Zub7mw8z77zzzhAkSCo0W640AVMBMgKUjgDYHzICBDmcmtBIgU0mQrdnwrPsG/u7xzj5TUo3xcNnnYa0tKUUOI8QnAfKLQ71APYT4AAF9gM4AELes9nL18e7kCReKzghb+5ADzwzvCbvDELJDAAD9asrrTMRMnOX3bpVvzITp6Ric+kUgFj1jAkB7AB5sxP042qH9aN4VCvuYBo9em6/9A73IsB0e9foY1zyek3m6tq3ncbVIP5KLsovW0IofdbImlFgKwheqrJbXzKyHsFlxxFMc9OK8tyLiIncDoqSmEWiMXtgDmooxRuEwAMgUCu/91D6Bf7Wzc7mtD7EpVYqnRTnWfiUS2gBKLlBZfGhzU8oxwTS2gnjDSqt7eCip99J4Yg5k4jJ+xwBzlXumFWdDzHKy4zBkuJho2AqMls+I77nzeRMDCoT9f660rn6AyNbaDhMxWaLBUC5kSLoUraESbzMBL+y2a3LxBcUcbA1pvgic+n9BOS3xpSuc6kSJr0EX2FzWG/Uq7DAcgwbmYrzLGtBMI1Xoz0DcuEZ2B8d/XPhGdAP3qwsXq41+xm0Zu2pvHEE0x2Fxmtz1E1R5/LioMuLAy4v2H9zSwTv2ezWa7j5U+jIEJhK8spWUUKvU1jHkGbu4UPRMr4QrROK0DKhOBZXQvIOWr0W8QzT4iLjgQoU/ngHxab6Dmyq9/j+7Gvxho2LkqdlSuitVfaKF4UEN4xT3WEqyrc8QSju0drIxknnoOGySXAVmLW60CWfhCk2mbc1ePDGPjcq9ru1O6L0Gpuz4j3tDtTl1BWm4rzSW0DIy+GrGH6htHVcIY5Nn4yWM8eqa6FB1hImPsKvO9SBv+51Y2N9hxaHx9NMpmk79739pZbMavPoBtPo4TPz09MyNgN0mJpKerMycXjuNTg+5QI12Qy3lTDxDcEqRzuW7XKhxaPy2UrH5yfdYCrKL3ucUHqvGok7hgzCwestaB07Rk22uLCVMPEPw+Z6Dx7c0Yq9PZ6nIj9FEYJ5lXbrm/xr1N2jLjAV5peON1GyGUBfpQ1qGzMSjnt/ptQ87uwkTOJCMn9LM7bUs00pASniVgr6uc1Rcam4GnV51gWmYnPZcoAuCtmYECLUz5yO+tnTRbddqH8Jk1B58XtbG17Y3a64EAJyc6Wj/M+KM2gwFA5T4Yg5eSaT16G0bk0XnIkDC3+k1Dxu7SRM4kPz0I5W/J89aLUv/Ai12eawThJZK+EwleSXzaWUhpiv9mx1u3k49j1wh8j26uZbwqSP1Hd+1YIP6pSt9JkIzhf5WY1wmIrNpc8A5OfRpKWZGXDcvRCugrxopgnxu4RJnzAdavfiln+3oLKpM3qBgneh6ABT2bcAnRCtpUfKrsTRGcmzsVnCFC3i/H5f6XDjwW9blTgUOtUTCpPS56V28zDYl94GmpGhRJCEsJEw6RumORuasKMx+uiUZjIN37nv7QMiaicWpvzSWSZKVkereN2Ca9E4+bxoZgn1u4RJ33ApHZ28hM6utle8I6J2QmEqMpfdSkBfiFTxljOKUbtkgYi2GepTwqS//EpGJwpyW5Wj/I8iaicYJstvCPDr7hXvvoqXjKMSa6+ESUR3jezz2SoXnq92RTSiwG+rHNYHRNROMEylfyYgET/UqnliKdi3SMmWJEz6R3RbQyfmbWqKAhP9S5Wj4iYRtRMMk+VDAlwZruKJvmUoUkAkTCK6a3SfM79oRFVz+G+hKPBRlcN6VXRP6i1EwxTxII8jpVfg6DWXqa91AuSQMBkTpB5TvaC9ARRYV+WwCul0hsJkv/dWuMbkG6O64FIlTIIFDuN+6zEPfvKv5rCFJy1Myfq8JBcgjAGJlcp2QsxeH/65KWlhsr30mHGqCy5ZjkyCBQ7jvrbNi2nrGlNrZGIreGxkStYkYTImsuxglomfHE8tmNizEntmStYkYTImsp1eivEfJjlMwR9ctJaMhvPuW4xRXIdSJUw6iBymiJL3G7r9Etj3kuKZScIUP2eNs0Mo4+3cPJ7oSZh4qhkHvuTIZFwQJEzGaS+kZAmTEFkVOZUwKZIpcYwkTMbFSsJknPZCSpYwCZFVkVMJkyKZEsdIwmRcrCRMxmkvpGQJkxBZFTmVMCmSKXGMJEzGxUrCZJz2QkqWMAmRVZFTCZMimRLHSMJkXKwkTBy1N7W50LuyBtmVe5C1x4H0401Ib2iEt1cmOnP7wtMvBy3fKwH70lfU91QSJo4BVelKwqRSsFDmpLMT/dduwoC165F+LPw2/MC87AZCdola08SzONTglItUhunzwx6scrZj7cFTxxZfMTQDPzT3wsWnpXPVOZQzCVOMEmftcWLo61b0su/X5Kn57PE4OL8MnTl9NOUPzpSqMD22sw1/3Rv+dopbRvfCL0uyuWgczklSwlRstjwH4HbWaJEbXfts34URy1+NOUDe7Cw477oJrpGxn3eeijA9VdmGV2qiX/Nye2EW7hR4QXUkmAD8yeawCvlcQegZEMV5ZQtB6EsiYRqwdgMGr3w3ZpACHdQ8fi88A/vF5DPVYFJyzFagoOUX52B8blpMGmsZmUCx2Oa0LhdRsFCYSsyzz6cw/VsUTH23fYfhz/+Nuy6ukSPg+OV/gd3MoTWlGkyPfNeG1/dFH5X8et5Y0AtLx4qZ7kUYmRrhJd+31ZZ/rTWukfIJhYkVXGy2/B3APN7TPLbYkL/sBc3PSNHEZBdSs2corSnVYJq7qQnbG6IfnO/X8/wB6Xh9kuJbWVWFIRxMIo9GZhUUDpMPqDzLl5TgnMDCYv3SdsBH6zH4rfdUiazW2HnXzZovp041mH7weSN297i4Obzi43LTYL04R21IFNmHhImQV2z28oWKHGg00gUmVrcis+XXBPiNv56xwGRyuTDqf36vePlbozZoPmsc9i+aryl7qsH0083N+NfRoEubIyh36ZAMvHQen5XT4GKCYfKC3F3tKH9GUyBVZNINpsI8y1QTwWc8YOqzw4YRz65Q0UxtpjQtDbufuR9slU9tSjWY2GXN7NJmpemesVm4uUC9rkr894CJ4rJqp3Wdkryx2CQkTKeVf4SB7wvXxqfr/tuvB3sHpTalGkwNbooL14Y/FShYv6+u6Ife6WK6n4RJRW81P/EisnfvU5FDu+nRH0zFEUvYuwfCOk41mJgQ79d14L+/aokq9nPn9sHlQ7WvlEYrQMIUTaGA3wvufxoZh4+qyKHd9Pgl5+PgDXNUO0hFmJhIbAvRb3e2YX9bz5so8nubcP+4bEwdIg4kVgcJk4ruWrjkIZhcbhU5tJuyDbG1i3+q2kGqwuQXqrzWja8bOtHg9qJ/pgnn9k/D7BGZqnXUkkHCpEI1CZMKsbpWUrtd7ZNq5+Z55QJE+A4jp3n6wNToobDWurHzeCecLi/yskwYkW3CDQW9kCto8YCNaOsOdWBva9c0cXxOGq4YloFpKqaGcmRS0T/kAoQKsTSOTFvqPVj6TSvYrRLBiYG07MzeXBcRalq8uG97C9gev1DpqmGZeOqs3uhlit52CVN0jU5a9HgeUZFXrSl7XmLPTWpTIj8zMZDmbwl/YZhfC16rcofavfjRpuaQ4AbqfuGgNLw6MfquCQmTit6aXbUX5qd8m9GFps4+2ah5+ldgL2/VpkSFiU3tLOubonZspgcbodZelhvzlO+ubS1498CpDwkjab2kKAuLCiO/7JUwqeyt+Y8+h6x9tSpzqTM/PmUiDs63qMt0wjpRYXq71o37trcqbvMdRVlYHKVzR3LmbPNieoTLyYLzDu5FsH5a5M9jJEyKw9dl2O+LLRj6mlVlLnXm9vsXgX2OoSUlKkyPfteGV1V8SjFxYDpeu1D77u81+924+2vl8LJYvDslB4V9w88WJEwaeqzI0SmWUYk1JVFhmr+5GVtUbFiNFSb2DRT7FkpNemNSX5w3IPxZEhImNWqesM2urIH5d69oyBk5S8sZxahdsiAmv4kKUyKMTGum5KBIjkx8do0H9nIRQPG4uDpRYdL7mcnR6sXl/1R2khSL+2mZJmyYnhvxHzo5MsUwDqQfPY7hL/wt5gWJWL6xCq5+osLEVvNKv2jCflfP90vBbcxJJ6i4JMf3IjeWxDbHsk2yShJb7GCLHpGShEmJkhFsiLsDQ1auQb8vfEdOqEre3tk4Nm0y6mdPV5UvknGiwsTapPd7pgNtXvx4czPY35GS0uczCROnbtx71270X7sRfb61gZ0TESl5+uf6vqZtmD4Z7mGDOdWgy00iw+QH6t7trSFHKDYiPc55B0RVc9cOiG+Oh44ZO8TyqbP6IFvBKz8JE9euDPiPSGaHUwYej+zJ7YPOnBy0TCgSdjRyMsDE2sCmfOVON3Y2dvpe4uZkELCzG346StzevLccbqw73IG9J86TGNcvDVcNzVC1dUnCxBkmo90l+shktH6xlC9hikW9OMyb6jC9s9+Nrxo8aOwA+mcSnNM/HdecLvajQH83kDDFIRCxVClVYfrscAfYuyq25B2cRvUx4YHx2bjkNLFQSZhi6blxmDcVYfqwrgNLFJwB8cJ5fVR9n6Q2vBImtYrFuX2qwdTYQXHBJ8pOJ2KbVT++NBfZafJ0Ik3dmOe5eZoqoHOmVIPpxRoXnql0KVaZnTPOzhsXka76vPHkaiDz7wUKqx3W3SLKCvQp5p+GELWWMOFhm9P6kOiAhvKvxxkQC7Y0Y1N9fJzo+rbTjfu+8e9EJ+U2R7n646U0BErCpEE0JVlSbWSKp7PGWXy+bvBg7samSVXOis1K4sXDRsLEQ8UQPlINpus2NoXdvRBKYpG3YPjLIy+t0K1/szJ1K0xO85J7mvfwjja8YVd+P9OCUVm4b5yYs8YlTIJGCKPcptrIxF7QskNRlKa3L87BBEE3B26u92D5bhc213u2Eoo1ej2rypFJafRV2qUaTEyeJ3a14c97oo9OPxudhbtKxI1K7GQltvPdn2wOqy79XJdCWKPkNC+5p3n+jsvOGX8twm3rIq/f9NdBvrRV+S9/vJun4sjkjwnbUrTK4fYd4u9PVwxNxzxzFqYMDn92A6+YSph4KRngJ6P+GAa98ynS64+hd2UN2s2no2PQAN/3S+yrWpEplWEK1DX4LmORmsuRSZC6A9Zu8H2gx75rCpWOTb8Yh+ddI6j0xP84UJgwOjiWIxNHkftu+w7Dn/9bVI/1s6aD/RGR4nlkUnKOgghN9PIpYeKkNBuJRi99MuyIFFzMvgcW+6Z/vJOEibeiyv1JmJRrFdEyd+NWDFvxD8Xejk2fjMPzZiq2V2oYzzDJ+5mURlGdXdItjQ9euQYD1m5UrEJbcQEcv1io2F6poYRJqVL87eTIxEnT4c+/hr7bdir25s3OQvWzDyq2V2ooYVKqFH87CRMnTQe9sxbsj9IkRyalSiWOnYSJU6zY+6Q8FeePi1rRkyMTp4BqcCNh0iBauCzmp19Gtm1PVI9silfz+D1gf/NOEibeiir3J2FSrlVUS7bzYeQjf4i6PO68+xZhOyHiGSb5nilqF9JkkHSreX4VGFDD/vJWyBGqY2B/7F80X8j7JX/5PZ7daGpsdNXUCzlnkiMTZ0H97tgzVC/nAaQfOQZ2QD9bcHDlDxcytQtsQjyPTPI9k5jOlrQjkxi5lHuVMCnXirelHJmiKMo2rvZy1Pl2gLMFA7YFqHHyub5d4CIS29/Xy3Hg5DSxPe90tJUUoPns8YqKS1WYjri92HDEg8pGL460e1Hv9vrOxxvUi/guKps2NEPYF7b+wExb19jttnhTGgp27bXuVRS4GIzifmRiHXrYird8HTs4MajqZ18OtiWIV2J7+4asfBdsW1KoxGCqu/G6qNPEVIOJfcP0pt2NTw9Fv7RsTB8TZpyeiR/l9wI7kJJ3Crr9cIXNYb2Rdxmh/PFvSZhaa/nSVumqHM93RUqW1dmoyDbIRkqpsgBR3dyJ31W6FEEUrNeQXib80JyJxVFuAtQCwlE3xUWftObZnKtqteTXkieuYVLSsf2N5rH7m00lB698V5GO0QBOhZGJgfSTfzXjeAf7BFB7YheZLT+3j3YHYXLKo75OCKN2J0PjRef6pl+xpMI7H4n6birQf6SLpOMZJh7vmdgJQDdsUX4aUbS4fH9wOl4+v280M1W/S5hOyKVmlGBZlEy9IkWCTSkL7ntKVbAijYbxDFOsS+O8QfKLHmu9goMnYTqhiNoNqyxbpJEiGiVqR0LmL9IOimSGac6GJuxojHxfcDS9w/3+yBm9Mc+cqTV7t3wSJs0j0zDse2CJ5iCwVTw2zVOTUnFkWulw48Fv/Yfiq1FLmS07mJIdUMkjSZjkMxOPftTNB89bMESOSv5K8xidPj/swcL/NJe507Bu715rA3dRQziUq3kBoqh5TkvF1bxPD3lw21Z+iw7hOji7//bvF2lfjPhDlQvLq7tOpaLAuiqH9bKUhyl+3zNFn1Im4zPTnV+14IO66C9leXRcBhODSkuS24nCqNa1A2KVbytRcOraATEd7Aw8Xok9Ow1a/UnYcySazx6HuhvnptwOCPYq6YwPdJkt+UJ565gs/LxY23dmEqYoNLApGNv5neU4gM7ebG/ecKF789jqHvvAkP3NEjsBli2/J8PePC3vmQ60eTF1XSOvf7Oi+rnOnIlHz+gd1S6UgYRJk2zxmynZpnnfHvfg2o3in5f8EZ06OB0vanyJK2ESxIV/hDG1uuA9MaK1lhREnabFWh0JU2wKSpgi6Kdlo2ss4WCLF0NX/OPkNC3QF/ts4+CCa4V9ss7KSjaY5DQvem+M66Xx6NUPbaF0FXD/7dcrfgZSW5dk2zUuFyCi94CkhEnpbnN5OlH0DhJocdvWFk2fWqgrpcv61Yl9ceEguTQeUju9pnlq99hFe/mqpSMk4zSPtemd/R34xdctWiVRnK+obxrWTNG+pUguQCiWOrKh2g2y8kRX5cKz75Zmr29CncurPJMGy1h3j0uYNIgeKos8a7ynKsF787S8Z/J7/dOedjy5q41TtHq6KeibhpWT+qJfhvYnEAkTp/DEzcgUfOZ5kpybxxYi5m0U9wnGQxOy8eP8XjH1BglTTPKdyizvZ4o+MsU6jfrkYAcWfcn/2WnBqCzcN07bFqLAVkuYOMEkbw4UDxMr4a972/HYTn7TPXa4yhfTcrn0AgkTFxm7nMg7bbuLyfN7pkDPvFb38nub8PGlfEBi9ZMwcYSJuWLTPXb+Xbjb1kUtifubkWw7IMKFh32S8eh3bTjUrm2FT8TJRBImzjAxd2wnRP9PNvh2mrMd4O3mYWjP69ptznaBi0ypAhPT8HA7xd/t7XjT4VYM1bQhGfhhfiYuG5zBPQwSJu6SGuswnmGKZWk8kqqNHRTrj3RgQ70Huxq7jkY+4vIiO51gcCbBoCwTrh6aifMHpqEkJ01YgCRMwqQ1xnE8wxTrap4xiiovVcKkXKuEsJQwGRcmCZNx2gspOdl2jQsRSZBTCZMgYY1yK0cmo5SXS+PGKS+oZAmTIGEVuJUjkwKREslEwmRctCRMxmkvpGQJkxBZFTmVMCmSKXGM4nkBQtR7pniJjoQpXiLBqR5yZOIkpAY3EiYNosVzFgmTcdGRMBmnvZCSJUxCZFXkNOlhGjuydLLXSzb41XCNyYf93lsViZOIRhImY6Lm9lJ878Pj3Qon1HtWpXP1dtE10v6hvcqalYycVUC9aV0HdwPwDMhFzRNLVXpJHHMJkzGx8t2yvrY7TK00o7fTuYrfl4xhmqYbTHl5c7N7k45uV87Fcm2mMaFSXqqESblWPC3trV5c8c/ACwZorc1RkcezjHC+dIOJVaDYbGF3kvTzV4aNTGyESsYUzzAl89I4u2uX3W7oT0l52ZkPpnzLLlCU+BvKnpnYs1MypniGKZk/wehxEzwhr9js5Qv16GO6jkzBZxEcvnYGjl01RY926l6GhEl3yX0Fsk/oX93XfqpwisU2p3W5HrXRF6Z8y52E4vf+hrWOHQPnXTfr0U7dy5Aw6S65r0B2IRu7scOfOqm3aLdzdbUetdEVpuJRs8aiM21nYMNqnv4VPLnaLwPWQyQtZUiYtKgWW55N9R4s2NLtQrZvbA7rmbF5VZ5bV5hYtYrMlq0EONdfxbqb5qJx0jnKa5wglhIm/QPFzvFj5/n5EyH0qUp7xT161UR3mIrzSpeBkJMvmFrOKEbtkgV6tVe3ciRMukntK4idkMRW8QKPHKOEzKqyl6/Rqya6w1SSN/tqSkzvBzawbsG1aJx8nl5t1qWceN41noyreX+ocmF5tSsgtqTWk5E+oaZmVfc3uAKjrztMrC3FZss/AMzxt4udZ2dfehtoBv8z1ARqF9F1PI9MyfaeKdSoBND7bY6Kx/SMvyEwlYwsm0a9dG1gQ4+UXYmjM6bq2XahZcUzTMk2MgWPShSo6kjDxL17rWyTgG7JEJh8o1Oe5VUQzPe3lKaloXbxDWgdX6Rb40UWJGESqe4p358e6sAdX7agk576f4Tg55V268lXMPrUBDAMpsIRsyaZTGmbAhvKbkHfs+yXerVdaDkSJqHy+pzva+3EdRua0egJJAnbcgYPmbh160sd4mvQvQTDYGLVKMkvfZJS0o2ettH5cCxN/E8zJEziu/KlnzX2uBKUUO/1lc7Vr4svvWcJhsJ0YjHiPQAzAqtWP3M66mdPN0IPbmVKmLhJGdLRvE1N2NbQ2e03AjxY6bD+RmzJ4b0bDpNvhDJb9lGg247XxgvPQt3N84zSJeZyJUwxSxjSQYuH4iebm7GrsTtIAFbYHNYbxZSqzGtcwFQ4Yk6eyeR1BFfZVWBG3Q1z4B4xVFlr4shKwsQ/GN8e92DRl609b3sneM9mt17Dv0R1HuMCJt90L7/sElD6RXD1O/tk48icq3F8ygXqWmawtYSJbwBWOtx4bGcrXEEDEqHkrUpn+Vy+pWnzFjcw+aZ7JbNzvC2mDwnBRcHNaR1XiGPTJ6PlzLHaWqpzLgkTH8EZRCvt7WAf/QUnQunSSmfFE3xKit1LXMHkb06R2fIIAR4I1Ty2KbZh6iS4Rptjb71ADxIm7eKy6dx/jnmwurYjJEQ+z5QutDkrXtFeCv+ccQmTb5Qyl91EKV0GgiGhmu0eOghtxaPR8r0SNJ89nr8yMXqUMCkTsNlDfc9ANc1erDvcgf8c7fS9PwqfaB2luLvKWfGGshL0s4pbmHxAjZxV4O1Mu5MQ3BlNEnaWhGdgf3T0z4VnQD94s7KiZRH++6A1ATumKB62Oa0PCS80RAHBXzhPHJRuRDW6lXmsneKAywsGk6JE0QTQ5zq9eH73/ooei1WKfAg2imuYTk778kovJIQwoH4sWA9x7uMIJnGNFOK5EwTPw9T5vG3vO7uElMDJaULA5G9rcZ5lBghmEmBm8HspTnqIcyNhUqvtFwT42GQyvbtz39tfqs1shH1CwRQoUEle2dUU3jkgpAzAaUaIp6pMCVMkuQ4C9CBAqkHp+0Dm+zbnqlpV+saBccLCFKjdhLy5A9tN7mEmkNOJlwyjhA4DRU4c6NutCkY9MxXmWeLu25Y0pB11Z3Qc3LNn9cF4i5PW+iQFTFobL/NJBXgqIGHiqab0ldIKSJhSOvyy8TwVkDDxVFP6SmkFJEwpHX7ZeJ4KSJh4qil9pbQCEqaUDr9sPE8FJEw81ZS+UloBCVNKh182nqcCEiaeakpfKa2AhCmlwy8bz1MBCRNPNaWvlFZAwpTS4ZeN56mAhImnmtJXSisgYUrp8MvG81RAwsRTTekrpRWQMKV0+GXjeSogYeKppvSV0gpImFI6/LLxPBWQMPFUU/pKaQUkTCkdftl4ngpImHiqKX2ltAISppQOv2w8TwUkTDzVlL5SWgEJU0qHXzaepwISJp5qSl8prYCEKaXDLxvPUwEfTMV5c0eAdPwvgIsBhL+NmaAJFF8TihWVTuuf1FSEnXdtAh4FwZkA+qrJK22lAmEUOAygklDyx0pn+etKVOLdDymw1UTop5X2intIodkyxgRUK6lINxuCy212a8BtXuE9lJjLbqWgL6guQ2aQCihUgBIyq8peviaSudB+SPEwKTFbVlNglsI6B5rZWmnG2U7nqrZIeUeNWpCV2dmwG8BwDWXILFIBRQoQ4J1Kh3V2OGM9+iEpNlvYPTiaOjqh3rMqnau3R2ptYX7peBMlOxQpIo2kArEoQDPywt3rpEc/lDDFEjyZN74UMBqmInNpBQEJOzyGV4vsaKXpFyic5tkAmONLeVmbZFKAgq6uclSURpnmCe2HXat5ZovCK69PVdVL6IRqe8V3SgLiW0Eh+EyJrbSRCmhRgBDvJZX21RsiPnII7IcUuPHke6biPMubIPi+kqVxL8UD1U7rOjWN9s1ZveRluTSuRjVpG0UB39K4mv7Iux/6lsYp3qx0Wp/8f9pxLkHFfAgDAAAAAElFTkSuQmCC;fontSize=20;fontColor=#000000;" vertex="1" parent="5B4BbQ4HqVvhWYgyXRDT-1">
          <mxGeometry x="213.29999999999995" y="674.5" width="84.4" height="80" as="geometry" />
        </mxCell>
        <mxCell id="5B4BbQ4HqVvhWYgyXRDT-31" value="" style="shape=image;verticalLabelPosition=bottom;labelBackgroundColor=default;verticalAlign=top;aspect=fixed;imageAspect=0;image=data:image/png,iVBORw0KGgoAAAANSUhEUgAAAMgAAADICAYAAACtWK6eAAAAAXNSR0IArs4c6QAAF2JJREFUeF7tnQl0FFXWx//VWYhASIgQIN2JIQGM4IIIOOqInwsMo2zjoIMiCsiiLIqILKIsYTGAYnQQEAExgIB+IKJBFj9BQdRhlAioQNJAkm42IZIESQJJ13deazTdXd2191J965wcNLn3vvv+9/361et6VcWBDlKAFPCqAEfakAKkgHcFCBAaHaSADwUIEBoepAABQmOAFFCmAM0gynQjrzBRgAAJk0JTN5UpQIAo0428wkQBAiRMCk3dVKYAAaJMN/IKEwUIkDApNHVTmQIEiDLdyCtMFCBAwqTQ1E1lChAgynQjrzBRgAAJk0JTN5UpQIAo0428wkQBAiRMCk3dVKYAASKgW1py8pNHi4sXKZM0NL3SU1Ju4nm+c7j1W6xaBIibQgwOjucXsl9bbbaw0IfBAYfjv6zPPM+POGq3h9WHgy9IwmIAiH1K1P69Lhy//26j1Wb7h1T/ULSrC0dt/gTJn5UkQH7XQgCOWpUMC4kTjpqaXHBcM3e4eZ5/8qjdvjgUodcyZwLkdzVbWSyP8MBKL+IaDhJfcDhPtYA2R222fC0HWyjGIkDqVC1cICE4pKNKgLhpZXRIROA4wgM9aOagNYjPjxCjQkJwSJ85ai1pBvGimdEgITjkw8E8CBAfuhkFEoJDGRwEiATdQh0SMTgA3Ge12QokSBGWJjSDSCh7qEJCcEgorogJASJRw1CDhOCQWFgCRBuhWJRWZvMAnuNygv1iIsGhXc1pBpGpZbBDQnDILCjNINoKFswzCcGhfa1pBlGoabDNJASHwkLSDKKPcME0kxAc+tWYZhCV2gZ6JiE4VBaQZhB9BQzkTEJw6F9bmkE00tjfMwnBoVHhaAbxj5D+nEkIDv/VlGYQjbXWeyYhODQuGM0g/hVUz5lEBI7DAHrQxkNt600ziLZ6/hFN65mE4NCpUDSDBEZYLWcSgiNwNaQZRGft1c4kBIfOBaIZJLACq5lJCI7A145mED/VQO5MIvTEwzqp0oLcT3UjQPwktJyZhODwY1HoFCt4xE5PSkrmIiLG8jw/xktWPHi+BhxnAsB+XA+OO8XV1Ay3nDixeSdQHTw9M24mNIPoVNs2SUlNqk2mLhzPt+dNpvbsXwDJXpvjOPZodanZXAawlwf2cTx/wMRxefk22zdSnclOugIEiHStRC3TkpJSTCZTNwfQjQO6AYgTdWIG8uAQDslx33E8v43n+W1Wu32HpHbJSFQBAkRUInGDdItlKIDe+A2KKHGPOhZawOF+JgYc4oFtJp5/O99uz5OVDxm7KECAqBgQaRbLwxwwEsCtSsKYTBFAhAkREZHgIiJhioxwLj8cNTXga6pRw/6trgbvqGEvtlHSxGWO495w8PxCet6uEvnoyYqKVEtPTu7DORwjeI7rKiWAKSIC0Q1iEd2gIerFNkK92DjnjykyUoq70+ZyxUVUXShDVXkZLpWXOf+b/U7icR4ctzCC5xcesdnsEn3IjB49Kn8MpFss8wCME/M0RUWhwZWJqN8k0flvRJS8My+x+OzvFaXncfHcGedPZel5KS5WAM9ZbbYPpBiTDc0gksdA27ZtoyvLypZzQH9fTg2aNkPDZkm6QeGt7VpYyk4Uo7qywme/eGD6UZttmuTOh7EhrUEkFL+V2WxxcNz3HJDgzTy2uRmNkpJRP6GJhIj6mdRcvozyk8UotRfj0q/l3hviuBxrcfFj+mVijMgEiEgdW5nNt/Act8ebWaMWFjSypOKKuPigGhFsUV9mL8IvhVZfa5WtVpute1AlHmTJECA+CpJmNrfhOI7te/I4ous3REJaa7CZI5iP6spKlBzPR6mtUDBNjucnF9jts4O5D4HMjQDxon6G2XxlNcexq9Ut3U3ik1sioWUrRETXC2TtZLV94cxJnCs4jEsXL3j4ccDQApttqayAYWJMgHgpdLrF8gkAj9OP+JSWaNqmXUgOj6ryUtjz9qKmqtIzf47rZy0uXheSHdMxab8Aktq8eWpkZGSqjv3QNjTPd+U57nn3oOzr2sap6dq25edolWWlOGc9BN7hcG/5IAeM9nM6mjRX43CcPHbihOCpsNoGdAMkLS0tznTp0jKe5/8q9KJ6tYmTPyngpkA5OG4/gAXW4uK1WqmjCyCtU1LSHA7HLgBJWiVKcUgBqQrwwLKjNtsQqfa+7DQHJM1iuY4DGMl0kAKBVGCu1WaboDYBTQFhp1VcVVUeOC501htqFST/4FWA5++22u2fqUlQU0DSLZY5AMYLJXRtq1g1eZIvKeBVgYMFXncM7LHabLepkU5TQNKSkzdxPN+zbkItmtTD/HHtcEVMhJo8yZcU8KnAmi12rNtywt3mgtVmU/XJrCkg6RYL20rtsjCfMrwNOlwj7cY6GgOkgBoF+ozZ6+HOmUztCoqKflQaV2tAPO7q2ZjdSWlu5EcKyFLghQWH4H66xQF3FthsO2UFqmNMgChVjvyCTgFDAvL5t+ew71AZjtsv4vgJyXfIBV1xjJBQuqU+WprrIyMtFvfcHNht+0r0NBwgXhZWSrQhH40V6HxtPJ4f0lrjqPqGMxQgQgsqfeWj6EoUCKU1pGEAmZ9jxRfflSipF/n4WYFH7jOjb9fQ2DFkCEDyDpdh2iJdNl76eeiET3PTnrwa7a9uJNhhHxfpdBPI20VnQwCyedcZLFnveXfbuPH/wqDBf9dNVAosrsDsmauwetWnHoYDeyejz53NBQP4ex05c1QGDA3IwveOY9uen13E7tr1JmT/OyRvRRAfdSFmkTk9B+vWuG5fuqvzlXjq4TQCRG0t0y0W0QuFQtPgipyJ6NQ5Q23z5K+BAnv/cwgDH81yicQ+sdknt9BBM4gM0QkQGWIFqSkB4loYv19JpxkkSMn4PS0lgPzgfTet5p3t191s7DUIAaL5mNE0oFxANG1cZTBDfItFgKgcBTq7EyB0iqXzEAvt8AQIARLaI1jn7AkQAkTnIRba4eUCQl/zyqg3fc0rQ6wgNSVAaAYJ0qEZHGkRIARIcIzEIM2CACFAgnRoBkdaBAgBEhwjMUizkAtIMHWDLhQGUzUMmgsBQjOIQYe2Nt0iQAgQbUaSQaMQIASIQYe2Nt2SCwi7UEi7eSVqTxcKJQoVxGZKABF4Jq5uPTT8Lbe0m1e3saNJYAKETrE0GUhGDUKAECBGHdua9IsAIUA0GUhGDSIXEHouloyRQIt0GWIFqalcQIKpG3QlPZiqYdBcCBA6xQqJof3Ggo0YOaqP33MlQAgQvw86uQ0uWrgJC17fgH4P3YUXpz4q112VPQFCgKgaQHo7v7loE15/bcMfzXT7WydMmfooGieoehel5LQJEAJE8mDxt+FbS3KRPf99j2Zv6ni1cyZp3dqse0oECAGi+yBT0sCypZsx/+X3vLq2TGuBF6cMwM1/aaskvGQfAoQAkTxY/GW44u0tmDdnrWhzcfEN8cKUAbj33ptFbZUaECAEiNKxo4vfOyu2Ym7WGlmxJ03uj0cGdJXlI9WYACFApI4V3e1WrdyOl2atFmznb907Y8/uAyi/UCH49+FP9MRTY/6peY4ECAGi+aBSEvDd1Z9i1oxVXuGYnz0Ce748iBnTV6Ko6LSgXd8H78D0zEFKmvfqQ4AQIJoOKCXB1q7dgRnT3vEJR+0ff/qxEJmZOdifZxW0v/ueDpgzdziuqF9PSSoePgQIAaLJQFIa5L21OzBdIhy1bZw6WYIZmTnYuSNPsNn2N7bGnLnDYEluqjStP/wIEAJE9SBSGmD9+59jyotvS5o53I0qKy9hxvQcbPxgt6B/SkozZM0ZihtubKU0PacfAUKAqBpASp03rN+FFycvUwRHXadX5q3D8mWfCMZp2CAGs+cMAzvtUnoQIASI0rGj2O/DD3bj+UlLVcNRG0DsouLUaY/hwX53KsqXACFAFA0cpU4fffglJk54SzM4agOxGWlmZg6qqi4Lxh45+h8YMbK37LQJEAJE9qBR6vDxx19jwrjFmsNRG3DnZ/uQmbkSp0+VCLahZDcwAUKAKB3vsvw2b/4Gz41dpBsctYG/31fg/Br40E9Fgm1169YRr2SPhMkk7YXGBEiIAcIKJvfo1Fn4pfdy49Tay82hpKQMY8cs1B2O2gYKC09j5vQc7Nnzg2CbHTq0xvzXRqFp0zhRCQiQEAOkXcZA0aK6GwwZdh+eGfuAbD8hhzOnf0HvHpNRVn5RdTy2fYRdIdfjYPnNnJaD3NyvBcMPHd4DY57pK9o0ARIGgLAuLnrzGXS54wbRASFmMHrka/js//aJmYn+XU846jY+e+YqrF71qUs+vfrchpeyhormyAwIkDABJMncBLmfZCE6OlLSwBAyUrLTViiOv+CobXvhGx/ijX9/4Pzfdu1SsWT5c4iPayBJBwIkTABh3ezR61bnFgwlB9sD1ff+qUpcXXz8DUdt47X7vT7YNBNt2lgk94MACTFABj6aJam4P585j+PHT3nYKr1o9tCDmdi//6hHPDlfACQkNNJtzSFFlK1b/gMGqJyDAAkxQKQW9+uvfsTjg+Z6mEdEmPDJ1rkwW5pIDeW8L5zdH+5+sIU/+wLAyAcBYlBAWLfqnnvX7WbHTlfjnZWTJI3r3bsOYPjQVzxs2YKfLfyNfhAgBgaEdW3o4y87bzRyP554sidGP+37Djy2bePuO8fil5JyF/eYmGh8lDsbbOFv9IMAMTggdttZ9O41GRUXqzzG8uo1k8HunfB2sG0hbHuI+zFn3nD06HmL0dlw9o8AMTggrHubNn6JSRM9NwgmJydiy3bPdQrzYfdZTBbYcct2xbKFfrgcBEgYAMK6OG3qCry/bqfHuL6/bxfMmDnY5fcn7GfR9e5xHrZXXdUMH3+SJXkfkxEgIkDCBBDWTbZFpKDA7jFuX31tJNgjPWuP/g/NQt6+fA87trBnC/xwOgiQMALkwPdW9PvXDI/xHRUVgT3fvIH69WOcV5zZt1/uB3ukDnu0TrgdBEgYAcK6uvStXLz6iufzbm/vcj2GPdETAx6e5cEAuxi4ImdiuLFBi3SBiku7SUDiUAnWN0yNfDJb8IkgbPv3zz+XevRu6/Z5mjwhRKJsQWVGM0iYzSCsuxcuVKDbXeNQWvar6GBku17Z7tdwPQiQMASEdXnHZ/swasRrPsd9z563IGve8HBlg06xwvUUq7bfc7LWIGfFVkEA4hvH4vNd2YiMjCBA3DaIXtsqFjNHaXuXph4i00s8NVCVbWFnW9ndj+Urxuv+7g0N0tc9BJ1ihekpVm232YOg/95tgosKjw+5F2PHPaj74AuFBgiQMAeEdb/uI0AzMlKwfmNmKIxdv+SoNyDny6txvvwSKqsciI+NQnxsJGLqaXNaS6dYGg6Ric+9iY8++gq5W7KQmtpcw8ihHUprQI7afsXBgnIcKCjH3oPnBcVJSoxBx7bxyEhtgFvbJygWkABRLJ2wI3uBjV5vatI4Vb+F0xKQ97adwIZPT6LykkNy/jdmxGFADzPSLNLuoa8bmACRLDMZKlVAC0BKyi4ja2k+jhSJX3fylucDXVug/33S76VncQgQpVUnP8kKqAVk8+4zWPK/nt8SSk6gjqGlWQwWTLpOsisBIlkqMlSqgBpAik9XYvRLB3w2nZgUjZT0eohrHImio1UoslaiqsL7KVi79FjMGi3tGgwBorTq5CdZATWADJ6ah5JS4afN9x7QFB1vi0VCYpRLLo4aHoUFldiYcwYFP1UK5jl+UCvcekNj0T4QIKISkYFaBZQCwhbk7272vPemYVwkhjzbAq2vre81tZIzl7Foth0nijxvk651WjLleiQm+H4PIwGitvrkL6qAEkC++6kUmW8e8YiddFU9TH411WebUuBgAW6/MQHPPpbuMxYBIlpeMlCrgBJAxr/6I44Uen5jlfV2OmLjvD/6VSoctX0a+2g6unTwfp2EAFFbffIXVUAuIGfOVWHYjP0ecQc+3QKd7mik6LSqfsMINDdH4ehh1zVJ1780xch+3mckAkS0vGSgVgG5gHz2zVm8vuaYS7NNmkdh+sI0xXCMfMGM4mNVWPvmaZcYiQnRWDLF+xP7CRC11Sd/UQXkArLiw2Js3OH6TOQbbm6IYRPMgm35Oq1iMweDI7XNFTieX4l5Ezyvp6yd08Hr3i0CRLS8ZKBWAbmAZK8+hp17z7o02/PhJuje90qPVKTC8ceao3++xzWSxS9cj+ZNhL/NIkDUVp/8RRWQC8i0RYeRd7jMJe6YzGSPr3XlwsECZk8pRv5B1zd7ZT19DTJaNhTsBwEiWl4yUKuAXECylhfg6/2/uDR7/8BE3N3rzwt7SuBgAccKzCDZ49shNUn4mgoBorb65C+qgFxAFr9fiC1fnnGJ2/H2WAx6Jsn5O6Vw2I5V4qVnPdcgK2bc6LyHROggQETLSwZqFZALyJotdqzbcsKlWbbfauqClorhYMG+3H4e7y5y/RaL/X5j9p9PxHTvKwGitvrkL6qAXEAOH7+ACdk/ecRlC/Vvd5cLbh+p+22Vt4SE1h+dro3H5CHen85PgIiWlwzUKiAXENaer02K7vlIgSN33VlsXnfOoyuD+ySj1/94v/uTAFFbffIXVUAJIG9tKELuF26nQzwPcK4P7pQCB0tw5P2HPfKMiTZh9lMZPu80JEBEy0sGahVQAsilagdGzz6A0yWXXJuvA4kUONj9IYtn21BaUu3RjYfvNePBbr8t/L0dBIja6pO/qAJKAGFBv/j2HOav9HwrMH6H5J7ejXF798Zo0sz1fpCaGqAwvwLf7CzD7m3CD3Vok9IAc8e2Fc2dABGViAzUKqAUENbunOUF+Mrtmoh7PmyfVnLLGCQ0jcKxIxWwF1b5vKOQ+S/PbI+ERq5gCfWTAFFbffIXVUANICx4nzF7RduQYzCs71W496+JklwIEEkykZEaBdQCwtpenWvD+9tPqkkDCXFRmD4iA8nNYiTHMQQgs5bmezxALHPGIPzzgTskC0GG+imQm/s1xj+72KWBm6+Lx6THvV9/EMqGXR9ZuqEI+Qoe/SNlQW7YUyyhK6/sPeTf5i3Rr+oUWbICnTo8gYsXXW9UErv+4C14jYPHO5uK8fm3JSgtF36YQ13fNlc1QL/uZnS4Jk5yvnUNDTGD7NpXglfesQoKMGJUH0XCkJM2CixcsFEw0KvPtUNLs/eHLkhp/bfHj5ah1Pls3suorKpBfKNoxDeMRErzK8BesZB4pe+HMoi1YwhA2CfJMy//4PXxMGIi0N/9qwBbILOFcigchgCECb1p5yks31gcCpqHfY7r53dEhEnTV1nqpqlhAGEKzV1hxZ68Et3EosDqFZj99DVo6+XmJPXRtY9gKECYPOybjtWb7dh/xPWONO2lo4hyFGDrgaf7t0TTxurWBHLa1MLWcIDUisKe6Vp88iIKT1VooRPFUKhAuqUBzIkxzp9QPAwLSCgWg3IOPgUIkOCrCWUURAoEPyBm83/BcTfV1Wzo/Sm4r0uzIJKRUjGiAhWVNXho4nceXauJjGx8/Phx4W3CEoTQ9Pu7VhbLMh4Y7N7u5KGt0aldvIR0yIQUkK8Ae3j2W+sLcfKsx9Phd1ltti7yI/7poSkgacnJgzmeX6YmIfIlBbRSgAemH7XZpqmJpykgLJF0s/lDcFwvNUmRLymggQI7rTbbnWrjaA6IExKLhVebGPmTAmoUqI6ISCosLFS35x6ALoCwjrUym5/nOW6Wmk6SLykgVwGe4z4y1av3QEFBgffXVckIqhsgTkiSk7vxwPVwONqB43y/akhG0mRKCrgpwF5vdcBhMh0+VlS0XUt1dAVEy0QpFikQCAUIkECoTm2GjAIESMiUihINhAIESCBUpzZDRgECJGRKRYkGQgECJBCqU5showABEjKlokQDoQABEgjVqc2QUYAACZlSUaKBUIAACYTq1GbIKECAhEypKNFAKECABEJ1ajNkFCBAQqZUlGggFCBAAqE6tRkyChAgIVMqSjQQChAggVCd2gwZBQiQkCkVJRoIBQiQQKhObYaMAv8PBKhCuQB9jQMAAAAASUVORK5CYII=;" vertex="1" parent="5B4BbQ4HqVvhWYgyXRDT-1">
          <mxGeometry x="213.3" y="483.5" width="139" height="139" as="geometry" />
        </mxCell>
        <mxCell id="5B4BbQ4HqVvhWYgyXRDT-32" value="" style="verticalLabelPosition=bottom;aspect=fixed;html=1;verticalAlign=top;strokeColor=none;shape=mxgraph.citrix.pda;fillColor=#66B2FF;gradientColor=#0066CC;fontSize=14;" vertex="1" parent="5B4BbQ4HqVvhWYgyXRDT-1">
          <mxGeometry x="1430.75" y="804" width="30" height="61" as="geometry" />
        </mxCell>
        <mxCell id="5B4BbQ4HqVvhWYgyXRDT-33" value="" style="verticalLabelPosition=bottom;aspect=fixed;html=1;verticalAlign=top;strokeColor=none;shape=mxgraph.citrix.pda;fillColor=#66B2FF;gradientColor=#0066CC;fontSize=14;" vertex="1" parent="5B4BbQ4HqVvhWYgyXRDT-1">
          <mxGeometry x="1430.75" y="894" width="30" height="61" as="geometry" />
        </mxCell>
        <mxCell id="5B4BbQ4HqVvhWYgyXRDT-34" value="" style="verticalLabelPosition=bottom;sketch=0;aspect=fixed;html=1;verticalAlign=top;strokeColor=none;align=center;outlineConnect=0;shape=mxgraph.citrix.tablet_2;" vertex="1" parent="5B4BbQ4HqVvhWYgyXRDT-1">
          <mxGeometry x="1430.75" y="980.5" width="82" height="86" as="geometry" />
        </mxCell>
        <mxCell id="5B4BbQ4HqVvhWYgyXRDT-35" value="" style="verticalLabelPosition=bottom;sketch=0;aspect=fixed;html=1;verticalAlign=top;strokeColor=none;align=center;outlineConnect=0;shape=mxgraph.citrix.desktop;" vertex="1" parent="5B4BbQ4HqVvhWYgyXRDT-1">
          <mxGeometry x="1123.75" y="428" width="89" height="98" as="geometry" />
        </mxCell>
        <mxCell id="3EFMnFiPQf6GanfPD14e-0" value="&lt;font color=&quot;#000000&quot; style=&quot;font-size: 20px;&quot;&gt;2.5G交换机&lt;/font&gt;" style="fontColor=#0066CC;verticalAlign=top;verticalLabelPosition=bottom;labelPosition=center;align=center;html=1;outlineConnect=0;fillColor=#CCCCCC;strokeColor=#6881B3;gradientColor=none;gradientDirection=north;strokeWidth=2;shape=mxgraph.networks.router;fontSize=14;" vertex="1" parent="5B4BbQ4HqVvhWYgyXRDT-1">
          <mxGeometry x="1121" y="882.75" width="100" height="30" as="geometry" />
        </mxCell>
        <mxCell id="3EFMnFiPQf6GanfPD14e-1" value="" style="edgeStyle=none;rounded=0;orthogonalLoop=1;jettySize=auto;html=1;strokeWidth=2;fontSize=20;fontColor=#000000;endArrow=none;endFill=0;" edge="1" parent="5B4BbQ4HqVvhWYgyXRDT-1" source="5B4BbQ4HqVvhWYgyXRDT-29" target="3EFMnFiPQf6GanfPD14e-0">
          <mxGeometry relative="1" as="geometry">
            <mxPoint x="1170.8216360116166" y="960" as="sourcePoint" />
            <mxPoint x="1168.5108906098744" y="526.0000000000002" as="targetPoint" />
          </mxGeometry>
        </mxCell>
      </root>
    </mxGraphModel>
  </diagram>
  <diagram name="2.5g次卧路由" id="YQCZpSAD3fsRxuWF3RzW">
    <mxGraphModel dx="1483" dy="827" grid="1" gridSize="10" guides="1" tooltips="1" connect="1" arrows="1" fold="1" page="1" pageScale="1.5" pageWidth="1169" pageHeight="826" background="none" math="0" shadow="0">
      <root>
        <mxCell id="8XTIwu--acg-zj0xdVPJ-0" style=";html=1;" />
        <mxCell id="8XTIwu--acg-zj0xdVPJ-1" style=";html=1;" parent="8XTIwu--acg-zj0xdVPJ-0" />
        <mxCell id="8XTIwu--acg-zj0xdVPJ-2" value="&lt;font style=&quot;font-size: 30px;&quot;&gt;北次卧&lt;/font&gt;" style="whiteSpace=wrap;html=1;fillColor=#f8cecc;fontSize=14;strokeColor=none;verticalAlign=top;" vertex="1" parent="8XTIwu--acg-zj0xdVPJ-1">
          <mxGeometry x="1084" y="300" width="493" height="356" as="geometry" />
        </mxCell>
        <mxCell id="8XTIwu--acg-zj0xdVPJ-3" value="&lt;font style=&quot;font-size: 30px;&quot;&gt;主卧&lt;/font&gt;" style="whiteSpace=wrap;html=1;fillColor=#d5e8d4;fontSize=14;strokeColor=none;verticalAlign=top;" vertex="1" parent="8XTIwu--acg-zj0xdVPJ-1">
          <mxGeometry x="1087.25" y="718" width="486.5" height="372" as="geometry" />
        </mxCell>
        <mxCell id="8XTIwu--acg-zj0xdVPJ-4" value="&lt;font style=&quot;font-size: 30px;&quot;&gt;弱电箱&lt;/font&gt;" style="whiteSpace=wrap;html=1;fillColor=#EDEDED;fontSize=14;strokeColor=none;verticalAlign=top;" vertex="1" parent="8XTIwu--acg-zj0xdVPJ-1">
          <mxGeometry x="700" y="228" width="280" height="868" as="geometry" />
        </mxCell>
        <mxCell id="8XTIwu--acg-zj0xdVPJ-5" value="&lt;font style=&quot;font-size: 30px;&quot;&gt;客厅&lt;/font&gt;" style="whiteSpace=wrap;html=1;fillColor=#dae8fc;fontSize=14;strokeColor=none;verticalAlign=top;" vertex="1" parent="8XTIwu--acg-zj0xdVPJ-1">
          <mxGeometry x="190" y="404.5" width="410" height="691.5" as="geometry" />
        </mxCell>
        <mxCell id="8XTIwu--acg-zj0xdVPJ-6" style="edgeStyle=none;rounded=0;html=1;startSize=10;endSize=10;jettySize=auto;orthogonalLoop=1;fontSize=14;endArrow=none;endFill=0;strokeWidth=2;entryX=0;entryY=0.7;entryDx=0;entryDy=0;entryPerimeter=0;dashed=1;" edge="1" parent="8XTIwu--acg-zj0xdVPJ-1" source="8XTIwu--acg-zj0xdVPJ-7" target="8XTIwu--acg-zj0xdVPJ-24">
          <mxGeometry relative="1" as="geometry">
            <mxPoint x="738" y="928.6923076923078" as="targetPoint" />
          </mxGeometry>
        </mxCell>
        <mxCell id="8XTIwu--acg-zj0xdVPJ-7" value="" style="verticalLabelPosition=bottom;aspect=fixed;html=1;verticalAlign=top;strokeColor=none;shape=mxgraph.citrix.laptop_2;fillColor=#66B2FF;gradientColor=#0066CC;fontSize=14;" vertex="1" parent="8XTIwu--acg-zj0xdVPJ-1">
          <mxGeometry x="197.4999999999999" y="854.5" width="116" height="86.5" as="geometry" />
        </mxCell>
        <mxCell id="8XTIwu--acg-zj0xdVPJ-8" value="" style="verticalLabelPosition=bottom;aspect=fixed;html=1;verticalAlign=top;strokeColor=none;shape=mxgraph.citrix.pda;fillColor=#66B2FF;gradientColor=#0066CC;fontSize=14;" vertex="1" parent="8XTIwu--acg-zj0xdVPJ-1">
          <mxGeometry x="240.50000000000006" y="784.5" width="30" height="61" as="geometry" />
        </mxCell>
        <mxCell id="8XTIwu--acg-zj0xdVPJ-9" value="&lt;font style=&quot;font-size: 20px;&quot;&gt;光猫&lt;/font&gt;" style="verticalLabelPosition=bottom;aspect=fixed;html=1;verticalAlign=top;strokeColor=none;shape=mxgraph.citrix.router;fillColor=#66B2FF;gradientColor=#0066CC;fontSize=14;" vertex="1" parent="8XTIwu--acg-zj0xdVPJ-1">
          <mxGeometry x="816" y="526" width="55" height="36.5" as="geometry" />
        </mxCell>
        <mxCell id="8XTIwu--acg-zj0xdVPJ-10" value="&lt;font style=&quot;font-size: 20px;&quot;&gt;NAS&lt;/font&gt;" style="verticalLabelPosition=top;aspect=fixed;html=1;verticalAlign=bottom;strokeColor=none;shape=mxgraph.citrix.cache_server;fillColor=#66B2FF;gradientColor=#0066CC;fontSize=14;labelPosition=center;align=center;" vertex="1" parent="8XTIwu--acg-zj0xdVPJ-1">
          <mxGeometry x="220" y="994.5" width="71" height="97.5" as="geometry" />
        </mxCell>
        <mxCell id="8XTIwu--acg-zj0xdVPJ-11" style="edgeStyle=none;rounded=0;html=1;startSize=10;endSize=10;jettySize=auto;orthogonalLoop=1;fontSize=14;endArrow=none;endFill=0;strokeWidth=2;" edge="1" parent="8XTIwu--acg-zj0xdVPJ-1" source="8XTIwu--acg-zj0xdVPJ-15" target="8XTIwu--acg-zj0xdVPJ-9">
          <mxGeometry relative="1" as="geometry" />
        </mxCell>
        <mxCell id="8XTIwu--acg-zj0xdVPJ-12" style="rounded=1;orthogonalLoop=1;jettySize=auto;html=1;strokeWidth=2;fontSize=30;endArrow=none;endFill=0;" edge="1" parent="8XTIwu--acg-zj0xdVPJ-1" source="8XTIwu--acg-zj0xdVPJ-15" target="8XTIwu--acg-zj0xdVPJ-31">
          <mxGeometry relative="1" as="geometry">
            <mxPoint x="352.5300000000002" y="637.7295081967216" as="targetPoint" />
          </mxGeometry>
        </mxCell>
        <mxCell id="8XTIwu--acg-zj0xdVPJ-13" value="IPTV" style="edgeLabel;html=1;align=center;verticalAlign=middle;resizable=0;points=[];fontSize=20;fontColor=#000000;" vertex="1" connectable="0" parent="8XTIwu--acg-zj0xdVPJ-12">
          <mxGeometry x="-0.1726" y="2" relative="1" as="geometry">
            <mxPoint as="offset" />
          </mxGeometry>
        </mxCell>
        <mxCell id="8XTIwu--acg-zj0xdVPJ-14" style="rounded=1;orthogonalLoop=1;jettySize=auto;html=1;entryX=1;entryY=0.7;entryDx=0;entryDy=0;entryPerimeter=0;strokeWidth=2;fontSize=30;endArrow=none;endFill=0;" edge="1" parent="8XTIwu--acg-zj0xdVPJ-1" source="8XTIwu--acg-zj0xdVPJ-15" target="8XTIwu--acg-zj0xdVPJ-24">
          <mxGeometry relative="1" as="geometry" />
        </mxCell>
        <mxCell id="8XTIwu--acg-zj0xdVPJ-15" value="" style="verticalLabelPosition=bottom;aspect=fixed;html=1;verticalAlign=top;strokeColor=none;shape=mxgraph.citrix.firewall;fillColor=#66B2FF;gradientColor=#0066CC;fontSize=14;" vertex="1" parent="8XTIwu--acg-zj0xdVPJ-1">
          <mxGeometry x="806" y="730" width="75" height="93" as="geometry" />
        </mxCell>
        <mxCell id="8XTIwu--acg-zj0xdVPJ-16" style="edgeStyle=orthogonalEdgeStyle;rounded=1;orthogonalLoop=1;jettySize=auto;html=1;entryX=0.552;entryY=0.183;entryDx=0;entryDy=0;entryPerimeter=0;fontSize=30;strokeWidth=2;endArrow=none;endFill=0;" edge="1" parent="8XTIwu--acg-zj0xdVPJ-1" source="8XTIwu--acg-zj0xdVPJ-17" target="8XTIwu--acg-zj0xdVPJ-9">
          <mxGeometry relative="1" as="geometry" />
        </mxCell>
        <mxCell id="8XTIwu--acg-zj0xdVPJ-17" value="&lt;font style=&quot;font-size: 20px;&quot;&gt;&lt;font style=&quot;font-size: 20px;&quot;&gt;互&lt;/font&gt;&lt;font style=&quot;font-size: 20px;&quot;&gt;联网&lt;/font&gt;&lt;/font&gt;" style="verticalLabelPosition=bottom;aspect=fixed;html=1;verticalAlign=top;strokeColor=none;shape=mxgraph.citrix.web_service;fillColor=#66B2FF;gradientColor=#0066CC;fontSize=14;" vertex="1" parent="8XTIwu--acg-zj0xdVPJ-1">
          <mxGeometry x="320" y="270" width="63" height="60" as="geometry" />
        </mxCell>
        <mxCell id="8XTIwu--acg-zj0xdVPJ-18" value="&lt;font style=&quot;font-size: 40px;&quot;&gt;网络拓扑&lt;br&gt;&lt;/font&gt;" style="text;strokeColor=none;fillColor=none;html=1;fontSize=24;fontStyle=1;verticalAlign=middle;align=center;" vertex="1" parent="8XTIwu--acg-zj0xdVPJ-1">
          <mxGeometry x="490" y="80" width="861" height="40" as="geometry" />
        </mxCell>
        <mxCell id="8XTIwu--acg-zj0xdVPJ-19" style="edgeStyle=none;rounded=1;orthogonalLoop=1;jettySize=auto;html=1;entryX=1.019;entryY=0.53;entryDx=0;entryDy=0;entryPerimeter=0;strokeWidth=2;fontSize=30;endArrow=none;endFill=0;" edge="1" parent="8XTIwu--acg-zj0xdVPJ-1" source="8XTIwu--acg-zj0xdVPJ-24" target="8XTIwu--acg-zj0xdVPJ-10">
          <mxGeometry relative="1" as="geometry" />
        </mxCell>
        <mxCell id="8XTIwu--acg-zj0xdVPJ-20" style="edgeStyle=none;rounded=1;orthogonalLoop=1;jettySize=auto;html=1;strokeWidth=2;fontSize=20;endArrow=none;endFill=0;dashed=1;" edge="1" parent="8XTIwu--acg-zj0xdVPJ-1" source="8XTIwu--acg-zj0xdVPJ-24" target="8XTIwu--acg-zj0xdVPJ-30">
          <mxGeometry relative="1" as="geometry">
            <mxPoint x="294.9999999999998" y="711.6057416267943" as="targetPoint" />
          </mxGeometry>
        </mxCell>
        <mxCell id="8XTIwu--acg-zj0xdVPJ-21" style="edgeStyle=none;rounded=1;orthogonalLoop=1;jettySize=auto;html=1;entryX=0.978;entryY=0.574;entryDx=0;entryDy=0;entryPerimeter=0;strokeWidth=2;fontSize=20;endArrow=none;endFill=0;dashed=1;" edge="1" parent="8XTIwu--acg-zj0xdVPJ-1" source="8XTIwu--acg-zj0xdVPJ-24" target="8XTIwu--acg-zj0xdVPJ-8">
          <mxGeometry relative="1" as="geometry" />
        </mxCell>
        <mxCell id="8XTIwu--acg-zj0xdVPJ-22" style="edgeStyle=none;rounded=1;orthogonalLoop=1;jettySize=auto;html=1;dashed=1;strokeWidth=2;fontSize=20;endArrow=none;endFill=0;" edge="1" parent="8XTIwu--acg-zj0xdVPJ-1" source="8XTIwu--acg-zj0xdVPJ-24">
          <mxGeometry relative="1" as="geometry">
            <mxPoint x="336.0979565868265" y="603" as="targetPoint" />
          </mxGeometry>
        </mxCell>
        <mxCell id="8XTIwu--acg-zj0xdVPJ-23" style="edgeStyle=none;rounded=1;orthogonalLoop=1;jettySize=auto;html=1;strokeWidth=2;fontSize=20;fontColor=#000000;endArrow=none;endFill=0;exitX=0.98;exitY=0.94;exitDx=0;exitDy=0;exitPerimeter=0;entryX=0;entryY=0.5;entryDx=0;entryDy=0;entryPerimeter=0;" edge="1" parent="8XTIwu--acg-zj0xdVPJ-1" source="8XTIwu--acg-zj0xdVPJ-24" target="8XTIwu--acg-zj0xdVPJ-36">
          <mxGeometry relative="1" as="geometry">
            <Array as="points">
              <mxPoint x="1020" y="868" />
            </Array>
          </mxGeometry>
        </mxCell>
        <mxCell id="8XTIwu--acg-zj0xdVPJ-24" value="&lt;font color=&quot;#000000&quot; style=&quot;font-size: 20px;&quot;&gt;主路由&lt;/font&gt;" style="fontColor=#0066CC;verticalAlign=top;verticalLabelPosition=bottom;labelPosition=center;align=center;html=1;outlineConnect=0;fillColor=#CCCCCC;strokeColor=#6881B3;gradientColor=none;gradientDirection=north;strokeWidth=2;shape=mxgraph.networks.wireless_hub;fontSize=40;" vertex="1" parent="8XTIwu--acg-zj0xdVPJ-1">
          <mxGeometry x="484" y="834" width="83.5" height="67" as="geometry" />
        </mxCell>
        <mxCell id="8XTIwu--acg-zj0xdVPJ-25" style="rounded=0;orthogonalLoop=1;jettySize=auto;html=1;entryX=0.122;entryY=0.678;entryDx=0;entryDy=0;entryPerimeter=0;endArrow=none;endFill=0;strokeWidth=2;dashed=1;" edge="1" parent="8XTIwu--acg-zj0xdVPJ-1" source="8XTIwu--acg-zj0xdVPJ-29" target="8XTIwu--acg-zj0xdVPJ-32">
          <mxGeometry relative="1" as="geometry" />
        </mxCell>
        <mxCell id="8XTIwu--acg-zj0xdVPJ-26" style="edgeStyle=none;rounded=0;orthogonalLoop=1;jettySize=auto;html=1;entryX=0.033;entryY=0.645;entryDx=0;entryDy=0;entryPerimeter=0;endArrow=none;endFill=0;strokeWidth=2;dashed=1;" edge="1" parent="8XTIwu--acg-zj0xdVPJ-1" source="8XTIwu--acg-zj0xdVPJ-29" target="8XTIwu--acg-zj0xdVPJ-33">
          <mxGeometry relative="1" as="geometry" />
        </mxCell>
        <mxCell id="8XTIwu--acg-zj0xdVPJ-27" style="edgeStyle=none;rounded=0;orthogonalLoop=1;jettySize=auto;html=1;endArrow=none;endFill=0;" edge="1" parent="8XTIwu--acg-zj0xdVPJ-1" source="8XTIwu--acg-zj0xdVPJ-29" target="8XTIwu--acg-zj0xdVPJ-34">
          <mxGeometry relative="1" as="geometry" />
        </mxCell>
        <mxCell id="8XTIwu--acg-zj0xdVPJ-28" style="edgeStyle=none;rounded=0;orthogonalLoop=1;jettySize=auto;html=1;strokeWidth=2;fontSize=20;fontColor=#000000;endArrow=none;endFill=0;startArrow=none;" edge="1" parent="8XTIwu--acg-zj0xdVPJ-1" source="8XTIwu--acg-zj0xdVPJ-36" target="8XTIwu--acg-zj0xdVPJ-35">
          <mxGeometry relative="1" as="geometry" />
        </mxCell>
        <mxCell id="8XTIwu--acg-zj0xdVPJ-29" value="&lt;font color=&quot;#000000&quot; style=&quot;font-size: 20px;&quot;&gt;子路由&lt;/font&gt;" style="fontColor=#0066CC;verticalAlign=top;verticalLabelPosition=bottom;labelPosition=center;align=center;html=1;outlineConnect=0;fillColor=#CCCCCC;strokeColor=#6881B3;gradientColor=none;gradientDirection=north;strokeWidth=2;shape=mxgraph.networks.wireless_hub;fontSize=40;" vertex="1" parent="8XTIwu--acg-zj0xdVPJ-1">
          <mxGeometry x="1158.25" y="526" width="83.5" height="67" as="geometry" />
        </mxCell>
        <mxCell id="8XTIwu--acg-zj0xdVPJ-30" value="" style="shape=image;verticalLabelPosition=bottom;verticalAlign=top;imageAspect=0;aspect=fixed;image=data:image/png,iVBORw0KGgoAAAANSUhEUgAAANMAAADICAYAAAByFtSBAAAAAXNSR0IArs4c6QAAHstJREFUeF7tnQl4lMX9x7+zOUiAhEsOIRsI5OCw3iKiVAQvKpANSmn7iMWDf1UE/9VWsVb/aqt41af+i1qPtlSr/yLWbBBvUaochRZFFCGbEGB3A+EIhJybzWbn/8yGhc1mj/d9d+Z995h5Hh4e3d/8Zub7mw8z77zzzhAkSCo0W640AVMBMgKUjgDYHzICBDmcmtBIgU0mQrdnwrPsG/u7xzj5TUo3xcNnnYa0tKUUOI8QnAfKLQ71APYT4AAF9gM4AELes9nL18e7kCReKzghb+5ADzwzvCbvDELJDAAD9asrrTMRMnOX3bpVvzITp6Ric+kUgFj1jAkB7AB5sxP042qH9aN4VCvuYBo9em6/9A73IsB0e9foY1zyek3m6tq3ncbVIP5KLsovW0IofdbImlFgKwheqrJbXzKyHsFlxxFMc9OK8tyLiIncDoqSmEWiMXtgDmooxRuEwAMgUCu/91D6Bf7Wzc7mtD7EpVYqnRTnWfiUS2gBKLlBZfGhzU8oxwTS2gnjDSqt7eCip99J4Yg5k4jJ+xwBzlXumFWdDzHKy4zBkuJho2AqMls+I77nzeRMDCoT9f660rn6AyNbaDhMxWaLBUC5kSLoUraESbzMBL+y2a3LxBcUcbA1pvgic+n9BOS3xpSuc6kSJr0EX2FzWG/Uq7DAcgwbmYrzLGtBMI1Xoz0DcuEZ2B8d/XPhGdAP3qwsXq41+xm0Zu2pvHEE0x2Fxmtz1E1R5/LioMuLAy4v2H9zSwTv2ezWa7j5U+jIEJhK8spWUUKvU1jHkGbu4UPRMr4QrROK0DKhOBZXQvIOWr0W8QzT4iLjgQoU/ngHxab6Dmyq9/j+7Gvxho2LkqdlSuitVfaKF4UEN4xT3WEqyrc8QSju0drIxknnoOGySXAVmLW60CWfhCk2mbc1ePDGPjcq9ru1O6L0Gpuz4j3tDtTl1BWm4rzSW0DIy+GrGH6htHVcIY5Nn4yWM8eqa6FB1hImPsKvO9SBv+51Y2N9hxaHx9NMpmk79739pZbMavPoBtPo4TPz09MyNgN0mJpKerMycXjuNTg+5QI12Qy3lTDxDcEqRzuW7XKhxaPy2UrH5yfdYCrKL3ucUHqvGok7hgzCwestaB07Rk22uLCVMPEPw+Z6Dx7c0Yq9PZ6nIj9FEYJ5lXbrm/xr1N2jLjAV5peON1GyGUBfpQ1qGzMSjnt/ptQ87uwkTOJCMn9LM7bUs00pASniVgr6uc1Rcam4GnV51gWmYnPZcoAuCtmYECLUz5yO+tnTRbddqH8Jk1B58XtbG17Y3a64EAJyc6Wj/M+KM2gwFA5T4Yg5eSaT16G0bk0XnIkDC3+k1Dxu7SRM4kPz0I5W/J89aLUv/Ai12eawThJZK+EwleSXzaWUhpiv9mx1u3k49j1wh8j26uZbwqSP1Hd+1YIP6pSt9JkIzhf5WY1wmIrNpc8A5OfRpKWZGXDcvRCugrxopgnxu4RJnzAdavfiln+3oLKpM3qBgneh6ABT2bcAnRCtpUfKrsTRGcmzsVnCFC3i/H5f6XDjwW9blTgUOtUTCpPS56V28zDYl94GmpGhRJCEsJEw6RumORuasKMx+uiUZjIN37nv7QMiaicWpvzSWSZKVkereN2Ca9E4+bxoZgn1u4RJ33ApHZ28hM6utle8I6J2QmEqMpfdSkBfiFTxljOKUbtkgYi2GepTwqS//EpGJwpyW5Wj/I8iaicYJstvCPDr7hXvvoqXjKMSa6+ESUR3jezz2SoXnq92RTSiwG+rHNYHRNROMEylfyYgET/UqnliKdi3SMmWJEz6R3RbQyfmbWqKAhP9S5Wj4iYRtRMMk+VDAlwZruKJvmUoUkAkTCK6a3SfM79oRFVz+G+hKPBRlcN6VXRP6i1EwxTxII8jpVfg6DWXqa91AuSQMBkTpB5TvaC9ARRYV+WwCul0hsJkv/dWuMbkG6O64FIlTIIFDuN+6zEPfvKv5rCFJy1Myfq8JBcgjAGJlcp2QsxeH/65KWlhsr30mHGqCy5ZjkyCBQ7jvrbNi2nrGlNrZGIreGxkStYkYTImsuxglomfHE8tmNizEntmStYkYTImsp1eivEfJjlMwR9ctJaMhvPuW4xRXIdSJUw6iBymiJL3G7r9Etj3kuKZScIUP2eNs0Mo4+3cPJ7oSZh4qhkHvuTIZFwQJEzGaS+kZAmTEFkVOZUwKZIpcYwkTMbFSsJknPZCSpYwCZFVkVMJkyKZEsdIwmRcrCRMxmkvpGQJkxBZFTmVMCmSKXGMJEzGxUrCZJz2QkqWMAmRVZFTCZMimRLHSMJkXKwkTBy1N7W50LuyBtmVe5C1x4H0401Ib2iEt1cmOnP7wtMvBy3fKwH70lfU91QSJo4BVelKwqRSsFDmpLMT/dduwoC165F+LPw2/MC87AZCdola08SzONTglItUhunzwx6scrZj7cFTxxZfMTQDPzT3wsWnpXPVOZQzCVOMEmftcWLo61b0su/X5Kn57PE4OL8MnTl9NOUPzpSqMD22sw1/3Rv+dopbRvfCL0uyuWgczklSwlRstjwH4HbWaJEbXfts34URy1+NOUDe7Cw477oJrpGxn3eeijA9VdmGV2qiX/Nye2EW7hR4QXUkmAD8yeawCvlcQegZEMV5ZQtB6EsiYRqwdgMGr3w3ZpACHdQ8fi88A/vF5DPVYFJyzFagoOUX52B8blpMGmsZmUCx2Oa0LhdRsFCYSsyzz6cw/VsUTH23fYfhz/+Nuy6ukSPg+OV/gd3MoTWlGkyPfNeG1/dFH5X8et5Y0AtLx4qZ7kUYmRrhJd+31ZZ/rTWukfIJhYkVXGy2/B3APN7TPLbYkL/sBc3PSNHEZBdSs2corSnVYJq7qQnbG6IfnO/X8/wB6Xh9kuJbWVWFIRxMIo9GZhUUDpMPqDzLl5TgnMDCYv3SdsBH6zH4rfdUiazW2HnXzZovp041mH7weSN297i4Obzi43LTYL04R21IFNmHhImQV2z28oWKHGg00gUmVrcis+XXBPiNv56xwGRyuTDqf36vePlbozZoPmsc9i+aryl7qsH0083N+NfRoEubIyh36ZAMvHQen5XT4GKCYfKC3F3tKH9GUyBVZNINpsI8y1QTwWc8YOqzw4YRz65Q0UxtpjQtDbufuR9slU9tSjWY2GXN7NJmpemesVm4uUC9rkr894CJ4rJqp3Wdkryx2CQkTKeVf4SB7wvXxqfr/tuvB3sHpTalGkwNbooL14Y/FShYv6+u6Ife6WK6n4RJRW81P/EisnfvU5FDu+nRH0zFEUvYuwfCOk41mJgQ79d14L+/aokq9nPn9sHlQ7WvlEYrQMIUTaGA3wvufxoZh4+qyKHd9Pgl5+PgDXNUO0hFmJhIbAvRb3e2YX9bz5so8nubcP+4bEwdIg4kVgcJk4ruWrjkIZhcbhU5tJuyDbG1i3+q2kGqwuQXqrzWja8bOtHg9qJ/pgnn9k/D7BGZqnXUkkHCpEI1CZMKsbpWUrtd7ZNq5+Z55QJE+A4jp3n6wNToobDWurHzeCecLi/yskwYkW3CDQW9kCto8YCNaOsOdWBva9c0cXxOGq4YloFpKqaGcmRS0T/kAoQKsTSOTFvqPVj6TSvYrRLBiYG07MzeXBcRalq8uG97C9gev1DpqmGZeOqs3uhlit52CVN0jU5a9HgeUZFXrSl7XmLPTWpTIj8zMZDmbwl/YZhfC16rcofavfjRpuaQ4AbqfuGgNLw6MfquCQmTit6aXbUX5qd8m9GFps4+2ah5+ldgL2/VpkSFiU3tLOubonZspgcbodZelhvzlO+ubS1498CpDwkjab2kKAuLCiO/7JUwqeyt+Y8+h6x9tSpzqTM/PmUiDs63qMt0wjpRYXq71o37trcqbvMdRVlYHKVzR3LmbPNieoTLyYLzDu5FsH5a5M9jJEyKw9dl2O+LLRj6mlVlLnXm9vsXgX2OoSUlKkyPfteGV1V8SjFxYDpeu1D77u81+924+2vl8LJYvDslB4V9w88WJEwaeqzI0SmWUYk1JVFhmr+5GVtUbFiNFSb2DRT7FkpNemNSX5w3IPxZEhImNWqesM2urIH5d69oyBk5S8sZxahdsiAmv4kKUyKMTGum5KBIjkx8do0H9nIRQPG4uDpRYdL7mcnR6sXl/1R2khSL+2mZJmyYnhvxHzo5MsUwDqQfPY7hL/wt5gWJWL6xCq5+osLEVvNKv2jCflfP90vBbcxJJ6i4JMf3IjeWxDbHsk2yShJb7GCLHpGShEmJkhFsiLsDQ1auQb8vfEdOqEre3tk4Nm0y6mdPV5UvknGiwsTapPd7pgNtXvx4czPY35GS0uczCROnbtx71270X7sRfb61gZ0TESl5+uf6vqZtmD4Z7mGDOdWgy00iw+QH6t7trSFHKDYiPc55B0RVc9cOiG+Oh44ZO8TyqbP6IFvBKz8JE9euDPiPSGaHUwYej+zJ7YPOnBy0TCgSdjRyMsDE2sCmfOVON3Y2dvpe4uZkELCzG346StzevLccbqw73IG9J86TGNcvDVcNzVC1dUnCxBkmo90l+shktH6xlC9hikW9OMyb6jC9s9+Nrxo8aOwA+mcSnNM/HdecLvajQH83kDDFIRCxVClVYfrscAfYuyq25B2cRvUx4YHx2bjkNLFQSZhi6blxmDcVYfqwrgNLFJwB8cJ5fVR9n6Q2vBImtYrFuX2qwdTYQXHBJ8pOJ2KbVT++NBfZafJ0Ik3dmOe5eZoqoHOmVIPpxRoXnql0KVaZnTPOzhsXka76vPHkaiDz7wUKqx3W3SLKCvQp5p+GELWWMOFhm9P6kOiAhvKvxxkQC7Y0Y1N9fJzo+rbTjfu+8e9EJ+U2R7n646U0BErCpEE0JVlSbWSKp7PGWXy+bvBg7samSVXOis1K4sXDRsLEQ8UQPlINpus2NoXdvRBKYpG3YPjLIy+t0K1/szJ1K0xO85J7mvfwjja8YVd+P9OCUVm4b5yYs8YlTIJGCKPcptrIxF7QskNRlKa3L87BBEE3B26u92D5bhc213u2Eoo1ej2rypFJafRV2qUaTEyeJ3a14c97oo9OPxudhbtKxI1K7GQltvPdn2wOqy79XJdCWKPkNC+5p3n+jsvOGX8twm3rIq/f9NdBvrRV+S9/vJun4sjkjwnbUrTK4fYd4u9PVwxNxzxzFqYMDn92A6+YSph4KRngJ6P+GAa98ynS64+hd2UN2s2no2PQAN/3S+yrWpEplWEK1DX4LmORmsuRSZC6A9Zu8H2gx75rCpWOTb8Yh+ddI6j0xP84UJgwOjiWIxNHkftu+w7Dn/9bVI/1s6aD/RGR4nlkUnKOgghN9PIpYeKkNBuJRi99MuyIFFzMvgcW+6Z/vJOEibeiyv1JmJRrFdEyd+NWDFvxD8Xejk2fjMPzZiq2V2oYzzDJ+5mURlGdXdItjQ9euQYD1m5UrEJbcQEcv1io2F6poYRJqVL87eTIxEnT4c+/hr7bdir25s3OQvWzDyq2V2ooYVKqFH87CRMnTQe9sxbsj9IkRyalSiWOnYSJU6zY+6Q8FeePi1rRkyMTp4BqcCNh0iBauCzmp19Gtm1PVI9silfz+D1gf/NOEibeiir3J2FSrlVUS7bzYeQjf4i6PO68+xZhOyHiGSb5nilqF9JkkHSreX4VGFDD/vJWyBGqY2B/7F80X8j7JX/5PZ7daGpsdNXUCzlnkiMTZ0H97tgzVC/nAaQfOQZ2QD9bcHDlDxcytQtsQjyPTPI9k5jOlrQjkxi5lHuVMCnXirelHJmiKMo2rvZy1Pl2gLMFA7YFqHHyub5d4CIS29/Xy3Hg5DSxPe90tJUUoPns8YqKS1WYjri92HDEg8pGL460e1Hv9vrOxxvUi/guKps2NEPYF7b+wExb19jttnhTGgp27bXuVRS4GIzifmRiHXrYird8HTs4MajqZ18OtiWIV2J7+4asfBdsW1KoxGCqu/G6qNPEVIOJfcP0pt2NTw9Fv7RsTB8TZpyeiR/l9wI7kJJ3Crr9cIXNYb2Rdxmh/PFvSZhaa/nSVumqHM93RUqW1dmoyDbIRkqpsgBR3dyJ31W6FEEUrNeQXib80JyJxVFuAtQCwlE3xUWftObZnKtqteTXkieuYVLSsf2N5rH7m00lB698V5GO0QBOhZGJgfSTfzXjeAf7BFB7YheZLT+3j3YHYXLKo75OCKN2J0PjRef6pl+xpMI7H4n6birQf6SLpOMZJh7vmdgJQDdsUX4aUbS4fH9wOl4+v280M1W/S5hOyKVmlGBZlEy9IkWCTSkL7ntKVbAijYbxDFOsS+O8QfKLHmu9goMnYTqhiNoNqyxbpJEiGiVqR0LmL9IOimSGac6GJuxojHxfcDS9w/3+yBm9Mc+cqTV7t3wSJs0j0zDse2CJ5iCwVTw2zVOTUnFkWulw48Fv/Yfiq1FLmS07mJIdUMkjSZjkMxOPftTNB89bMESOSv5K8xidPj/swcL/NJe507Bu715rA3dRQziUq3kBoqh5TkvF1bxPD3lw21Z+iw7hOji7//bvF2lfjPhDlQvLq7tOpaLAuiqH9bKUhyl+3zNFn1Im4zPTnV+14IO66C9leXRcBhODSkuS24nCqNa1A2KVbytRcOraATEd7Aw8Xok9Ow1a/UnYcySazx6HuhvnptwOCPYq6YwPdJkt+UJ565gs/LxY23dmEqYoNLApGNv5neU4gM7ebG/ecKF789jqHvvAkP3NEjsBli2/J8PePC3vmQ60eTF1XSOvf7Oi+rnOnIlHz+gd1S6UgYRJk2zxmynZpnnfHvfg2o3in5f8EZ06OB0vanyJK2ESxIV/hDG1uuA9MaK1lhREnabFWh0JU2wKSpgi6Kdlo2ss4WCLF0NX/OPkNC3QF/ts4+CCa4V9ss7KSjaY5DQvem+M66Xx6NUPbaF0FXD/7dcrfgZSW5dk2zUuFyCi94CkhEnpbnN5OlH0DhJocdvWFk2fWqgrpcv61Yl9ceEguTQeUju9pnlq99hFe/mqpSMk4zSPtemd/R34xdctWiVRnK+obxrWTNG+pUguQCiWOrKh2g2y8kRX5cKz75Zmr29CncurPJMGy1h3j0uYNIgeKos8a7ynKsF787S8Z/J7/dOedjy5q41TtHq6KeibhpWT+qJfhvYnEAkTp/DEzcgUfOZ5kpybxxYi5m0U9wnGQxOy8eP8XjH1BglTTPKdyizvZ4o+MsU6jfrkYAcWfcn/2WnBqCzcN07bFqLAVkuYOMEkbw4UDxMr4a972/HYTn7TPXa4yhfTcrn0AgkTFxm7nMg7bbuLyfN7pkDPvFb38nub8PGlfEBi9ZMwcYSJuWLTPXb+Xbjb1kUtifubkWw7IMKFh32S8eh3bTjUrm2FT8TJRBImzjAxd2wnRP9PNvh2mrMd4O3mYWjP69ptznaBi0ypAhPT8HA7xd/t7XjT4VYM1bQhGfhhfiYuG5zBPQwSJu6SGuswnmGKZWk8kqqNHRTrj3RgQ70Huxq7jkY+4vIiO51gcCbBoCwTrh6aifMHpqEkJ01YgCRMwqQ1xnE8wxTrap4xiiovVcKkXKuEsJQwGRcmCZNx2gspOdl2jQsRSZBTCZMgYY1yK0cmo5SXS+PGKS+oZAmTIGEVuJUjkwKREslEwmRctCRMxmkvpGQJkxBZFTmVMCmSKXGM4nkBQtR7pniJjoQpXiLBqR5yZOIkpAY3EiYNosVzFgmTcdGRMBmnvZCSJUxCZFXkNOlhGjuydLLXSzb41XCNyYf93lsViZOIRhImY6Lm9lJ878Pj3Qon1HtWpXP1dtE10v6hvcqalYycVUC9aV0HdwPwDMhFzRNLVXpJHHMJkzGx8t2yvrY7TK00o7fTuYrfl4xhmqYbTHl5c7N7k45uV87Fcm2mMaFSXqqESblWPC3trV5c8c/ACwZorc1RkcezjHC+dIOJVaDYbGF3kvTzV4aNTGyESsYUzzAl89I4u2uX3W7oT0l52ZkPpnzLLlCU+BvKnpnYs1MypniGKZk/wehxEzwhr9js5Qv16GO6jkzBZxEcvnYGjl01RY926l6GhEl3yX0Fsk/oX93XfqpwisU2p3W5HrXRF6Z8y52E4vf+hrWOHQPnXTfr0U7dy5Aw6S65r0B2IRu7scOfOqm3aLdzdbUetdEVpuJRs8aiM21nYMNqnv4VPLnaLwPWQyQtZUiYtKgWW55N9R4s2NLtQrZvbA7rmbF5VZ5bV5hYtYrMlq0EONdfxbqb5qJx0jnKa5wglhIm/QPFzvFj5/n5EyH0qUp7xT161UR3mIrzSpeBkJMvmFrOKEbtkgV6tVe3ciRMukntK4idkMRW8QKPHKOEzKqyl6/Rqya6w1SSN/tqSkzvBzawbsG1aJx8nl5t1qWceN41noyreX+ocmF5tSsgtqTWk5E+oaZmVfc3uAKjrztMrC3FZss/AMzxt4udZ2dfehtoBv8z1ARqF9F1PI9MyfaeKdSoBND7bY6Kx/SMvyEwlYwsm0a9dG1gQ4+UXYmjM6bq2XahZcUzTMk2MgWPShSo6kjDxL17rWyTgG7JEJh8o1Oe5VUQzPe3lKaloXbxDWgdX6Rb40UWJGESqe4p358e6sAdX7agk576f4Tg55V268lXMPrUBDAMpsIRsyaZTGmbAhvKbkHfs+yXerVdaDkSJqHy+pzva+3EdRua0egJJAnbcgYPmbh160sd4mvQvQTDYGLVKMkvfZJS0o2ettH5cCxN/E8zJEziu/KlnzX2uBKUUO/1lc7Vr4svvWcJhsJ0YjHiPQAzAqtWP3M66mdPN0IPbmVKmLhJGdLRvE1N2NbQ2e03AjxY6bD+RmzJ4b0bDpNvhDJb9lGg247XxgvPQt3N84zSJeZyJUwxSxjSQYuH4iebm7GrsTtIAFbYHNYbxZSqzGtcwFQ4Yk6eyeR1BFfZVWBG3Q1z4B4xVFlr4shKwsQ/GN8e92DRl609b3sneM9mt17Dv0R1HuMCJt90L7/sElD6RXD1O/tk48icq3F8ygXqWmawtYSJbwBWOtx4bGcrXEEDEqHkrUpn+Vy+pWnzFjcw+aZ7JbNzvC2mDwnBRcHNaR1XiGPTJ6PlzLHaWqpzLgkTH8EZRCvt7WAf/QUnQunSSmfFE3xKit1LXMHkb06R2fIIAR4I1Ty2KbZh6iS4Rptjb71ADxIm7eKy6dx/jnmwurYjJEQ+z5QutDkrXtFeCv+ccQmTb5Qyl91EKV0GgiGhmu0eOghtxaPR8r0SNJ89nr8yMXqUMCkTsNlDfc9ANc1erDvcgf8c7fS9PwqfaB2luLvKWfGGshL0s4pbmHxAjZxV4O1Mu5MQ3BlNEnaWhGdgf3T0z4VnQD94s7KiZRH++6A1ATumKB62Oa0PCS80RAHBXzhPHJRuRDW6lXmsneKAywsGk6JE0QTQ5zq9eH73/ooei1WKfAg2imuYTk778kovJIQwoH4sWA9x7uMIJnGNFOK5EwTPw9T5vG3vO7uElMDJaULA5G9rcZ5lBghmEmBm8HspTnqIcyNhUqvtFwT42GQyvbtz39tfqs1shH1CwRQoUEle2dUU3jkgpAzAaUaIp6pMCVMkuQ4C9CBAqkHp+0Dm+zbnqlpV+saBccLCFKjdhLy5A9tN7mEmkNOJlwyjhA4DRU4c6NutCkY9MxXmWeLu25Y0pB11Z3Qc3LNn9cF4i5PW+iQFTFobL/NJBXgqIGHiqab0ldIKSJhSOvyy8TwVkDDxVFP6SmkFJEwpHX7ZeJ4KSJh4qil9pbQCEqaUDr9sPE8FJEw81ZS+UloBCVNKh182nqcCEiaeakpfKa2AhCmlwy8bz1MBCRNPNaWvlFZAwpTS4ZeN56mAhImnmtJXSisgYUrp8MvG81RAwsRTTekrpRWQMKV0+GXjeSogYeKppvSV0gpImFI6/LLxPBWQMPFUU/pKaQUkTCkdftl4ngpImHiqKX2ltAISppQOv2w8TwUkTDzVlL5SWgEJU0qHXzaepwISJp5qSl8prYCEKaXDLxvPUwEfTMV5c0eAdPwvgIsBhL+NmaAJFF8TihWVTuuf1FSEnXdtAh4FwZkA+qrJK22lAmEUOAygklDyx0pn+etKVOLdDymw1UTop5X2intIodkyxgRUK6lINxuCy212a8BtXuE9lJjLbqWgL6guQ2aQCihUgBIyq8peviaSudB+SPEwKTFbVlNglsI6B5rZWmnG2U7nqrZIeUeNWpCV2dmwG8BwDWXILFIBRQoQ4J1Kh3V2OGM9+iEpNlvYPTiaOjqh3rMqnau3R2ptYX7peBMlOxQpIo2kArEoQDPywt3rpEc/lDDFEjyZN74UMBqmInNpBQEJOzyGV4vsaKXpFyic5tkAmONLeVmbZFKAgq6uclSURpnmCe2HXat5ZovCK69PVdVL6IRqe8V3SgLiW0Eh+EyJrbSRCmhRgBDvJZX21RsiPnII7IcUuPHke6biPMubIPi+kqVxL8UD1U7rOjWN9s1ZveRluTSuRjVpG0UB39K4mv7Iux/6lsYp3qx0Wp/8f9pxLkHFfAgDAAAAAElFTkSuQmCC;fontSize=20;fontColor=#000000;" vertex="1" parent="8XTIwu--acg-zj0xdVPJ-1">
          <mxGeometry x="213.29999999999995" y="674.5" width="84.4" height="80" as="geometry" />
        </mxCell>
        <mxCell id="8XTIwu--acg-zj0xdVPJ-31" value="" style="shape=image;verticalLabelPosition=bottom;labelBackgroundColor=default;verticalAlign=top;aspect=fixed;imageAspect=0;image=data:image/png,iVBORw0KGgoAAAANSUhEUgAAAMgAAADICAYAAACtWK6eAAAAAXNSR0IArs4c6QAAF2JJREFUeF7tnQl0FFXWx//VWYhASIgQIN2JIQGM4IIIOOqInwsMo2zjoIMiCsiiLIqILKIsYTGAYnQQEAExgIB+IKJBFj9BQdRhlAioQNJAkm42IZIESQJJ13deazTdXd2191J965wcNLn3vvv+9/361et6VcWBDlKAFPCqAEfakAKkgHcFCBAaHaSADwUIEBoepAABQmOAFFCmAM0gynQjrzBRgAAJk0JTN5UpQIAo0428wkQBAiRMCk3dVKYAAaJMN/IKEwUIkDApNHVTmQIEiDLdyCtMFCBAwqTQ1E1lChAgynQjrzBRgAAJk0JTN5UpQIAo0428wkQBAiRMCk3dVKYAASKgW1py8pNHi4sXKZM0NL3SU1Ju4nm+c7j1W6xaBIibQgwOjucXsl9bbbaw0IfBAYfjv6zPPM+POGq3h9WHgy9IwmIAiH1K1P69Lhy//26j1Wb7h1T/ULSrC0dt/gTJn5UkQH7XQgCOWpUMC4kTjpqaXHBcM3e4eZ5/8qjdvjgUodcyZwLkdzVbWSyP8MBKL+IaDhJfcDhPtYA2R222fC0HWyjGIkDqVC1cICE4pKNKgLhpZXRIROA4wgM9aOagNYjPjxCjQkJwSJ85ai1pBvGimdEgITjkw8E8CBAfuhkFEoJDGRwEiATdQh0SMTgA3Ge12QokSBGWJjSDSCh7qEJCcEgorogJASJRw1CDhOCQWFgCRBuhWJRWZvMAnuNygv1iIsGhXc1pBpGpZbBDQnDILCjNINoKFswzCcGhfa1pBlGoabDNJASHwkLSDKKPcME0kxAc+tWYZhCV2gZ6JiE4VBaQZhB9BQzkTEJw6F9bmkE00tjfMwnBoVHhaAbxj5D+nEkIDv/VlGYQjbXWeyYhODQuGM0g/hVUz5lEBI7DAHrQxkNt600ziLZ6/hFN65mE4NCpUDSDBEZYLWcSgiNwNaQZRGft1c4kBIfOBaIZJLACq5lJCI7A145mED/VQO5MIvTEwzqp0oLcT3UjQPwktJyZhODwY1HoFCt4xE5PSkrmIiLG8jw/xktWPHi+BhxnAsB+XA+OO8XV1Ay3nDixeSdQHTw9M24mNIPoVNs2SUlNqk2mLhzPt+dNpvbsXwDJXpvjOPZodanZXAawlwf2cTx/wMRxefk22zdSnclOugIEiHStRC3TkpJSTCZTNwfQjQO6AYgTdWIG8uAQDslx33E8v43n+W1Wu32HpHbJSFQBAkRUInGDdItlKIDe+A2KKHGPOhZawOF+JgYc4oFtJp5/O99uz5OVDxm7KECAqBgQaRbLwxwwEsCtSsKYTBFAhAkREZHgIiJhioxwLj8cNTXga6pRw/6trgbvqGEvtlHSxGWO495w8PxCet6uEvnoyYqKVEtPTu7DORwjeI7rKiWAKSIC0Q1iEd2gIerFNkK92DjnjykyUoq70+ZyxUVUXShDVXkZLpWXOf+b/U7icR4ctzCC5xcesdnsEn3IjB49Kn8MpFss8wCME/M0RUWhwZWJqN8k0flvRJS8My+x+OzvFaXncfHcGedPZel5KS5WAM9ZbbYPpBiTDc0gksdA27ZtoyvLypZzQH9fTg2aNkPDZkm6QeGt7VpYyk4Uo7qywme/eGD6UZttmuTOh7EhrUEkFL+V2WxxcNz3HJDgzTy2uRmNkpJRP6GJhIj6mdRcvozyk8UotRfj0q/l3hviuBxrcfFj+mVijMgEiEgdW5nNt/Act8ebWaMWFjSypOKKuPigGhFsUV9mL8IvhVZfa5WtVpute1AlHmTJECA+CpJmNrfhOI7te/I4ous3REJaa7CZI5iP6spKlBzPR6mtUDBNjucnF9jts4O5D4HMjQDxon6G2XxlNcexq9Ut3U3ik1sioWUrRETXC2TtZLV94cxJnCs4jEsXL3j4ccDQApttqayAYWJMgHgpdLrF8gkAj9OP+JSWaNqmXUgOj6ryUtjz9qKmqtIzf47rZy0uXheSHdMxab8Aktq8eWpkZGSqjv3QNjTPd+U57nn3oOzr2sap6dq25edolWWlOGc9BN7hcG/5IAeM9nM6mjRX43CcPHbihOCpsNoGdAMkLS0tznTp0jKe5/8q9KJ6tYmTPyngpkA5OG4/gAXW4uK1WqmjCyCtU1LSHA7HLgBJWiVKcUgBqQrwwLKjNtsQqfa+7DQHJM1iuY4DGMl0kAKBVGCu1WaboDYBTQFhp1VcVVUeOC501htqFST/4FWA5++22u2fqUlQU0DSLZY5AMYLJXRtq1g1eZIvKeBVgYMFXncM7LHabLepkU5TQNKSkzdxPN+zbkItmtTD/HHtcEVMhJo8yZcU8KnAmi12rNtywt3mgtVmU/XJrCkg6RYL20rtsjCfMrwNOlwj7cY6GgOkgBoF+ozZ6+HOmUztCoqKflQaV2tAPO7q2ZjdSWlu5EcKyFLghQWH4H66xQF3FthsO2UFqmNMgChVjvyCTgFDAvL5t+ew71AZjtsv4vgJyXfIBV1xjJBQuqU+WprrIyMtFvfcHNht+0r0NBwgXhZWSrQhH40V6HxtPJ4f0lrjqPqGMxQgQgsqfeWj6EoUCKU1pGEAmZ9jxRfflSipF/n4WYFH7jOjb9fQ2DFkCEDyDpdh2iJdNl76eeiET3PTnrwa7a9uJNhhHxfpdBPI20VnQwCyedcZLFnveXfbuPH/wqDBf9dNVAosrsDsmauwetWnHoYDeyejz53NBQP4ex05c1QGDA3IwveOY9uen13E7tr1JmT/OyRvRRAfdSFmkTk9B+vWuG5fuqvzlXjq4TQCRG0t0y0W0QuFQtPgipyJ6NQ5Q23z5K+BAnv/cwgDH81yicQ+sdknt9BBM4gM0QkQGWIFqSkB4loYv19JpxkkSMn4PS0lgPzgfTet5p3t191s7DUIAaL5mNE0oFxANG1cZTBDfItFgKgcBTq7EyB0iqXzEAvt8AQIARLaI1jn7AkQAkTnIRba4eUCQl/zyqg3fc0rQ6wgNSVAaAYJ0qEZHGkRIARIcIzEIM2CACFAgnRoBkdaBAgBEhwjMUizkAtIMHWDLhQGUzUMmgsBQjOIQYe2Nt0iQAgQbUaSQaMQIASIQYe2Nt2SCwi7UEi7eSVqTxcKJQoVxGZKABF4Jq5uPTT8Lbe0m1e3saNJYAKETrE0GUhGDUKAECBGHdua9IsAIUA0GUhGDSIXEHouloyRQIt0GWIFqalcQIKpG3QlPZiqYdBcCBA6xQqJof3Ggo0YOaqP33MlQAgQvw86uQ0uWrgJC17fgH4P3YUXpz4q112VPQFCgKgaQHo7v7loE15/bcMfzXT7WydMmfooGieoehel5LQJEAJE8mDxt+FbS3KRPf99j2Zv6ni1cyZp3dqse0oECAGi+yBT0sCypZsx/+X3vLq2TGuBF6cMwM1/aaskvGQfAoQAkTxY/GW44u0tmDdnrWhzcfEN8cKUAbj33ptFbZUaECAEiNKxo4vfOyu2Ym7WGlmxJ03uj0cGdJXlI9WYACFApI4V3e1WrdyOl2atFmznb907Y8/uAyi/UCH49+FP9MRTY/6peY4ECAGi+aBSEvDd1Z9i1oxVXuGYnz0Ce748iBnTV6Ko6LSgXd8H78D0zEFKmvfqQ4AQIJoOKCXB1q7dgRnT3vEJR+0ff/qxEJmZOdifZxW0v/ueDpgzdziuqF9PSSoePgQIAaLJQFIa5L21OzBdIhy1bZw6WYIZmTnYuSNPsNn2N7bGnLnDYEluqjStP/wIEAJE9SBSGmD9+59jyotvS5o53I0qKy9hxvQcbPxgt6B/SkozZM0ZihtubKU0PacfAUKAqBpASp03rN+FFycvUwRHXadX5q3D8mWfCMZp2CAGs+cMAzvtUnoQIASI0rGj2O/DD3bj+UlLVcNRG0DsouLUaY/hwX53KsqXACFAFA0cpU4fffglJk54SzM4agOxGWlmZg6qqi4Lxh45+h8YMbK37LQJEAJE9qBR6vDxx19jwrjFmsNRG3DnZ/uQmbkSp0+VCLahZDcwAUKAKB3vsvw2b/4Gz41dpBsctYG/31fg/Br40E9Fgm1169YRr2SPhMkk7YXGBEiIAcIKJvfo1Fn4pfdy49Tay82hpKQMY8cs1B2O2gYKC09j5vQc7Nnzg2CbHTq0xvzXRqFp0zhRCQiQEAOkXcZA0aK6GwwZdh+eGfuAbD8hhzOnf0HvHpNRVn5RdTy2fYRdIdfjYPnNnJaD3NyvBcMPHd4DY57pK9o0ARIGgLAuLnrzGXS54wbRASFmMHrka/js//aJmYn+XU846jY+e+YqrF71qUs+vfrchpeyhormyAwIkDABJMncBLmfZCE6OlLSwBAyUrLTViiOv+CobXvhGx/ijX9/4Pzfdu1SsWT5c4iPayBJBwIkTABh3ezR61bnFgwlB9sD1ff+qUpcXXz8DUdt47X7vT7YNBNt2lgk94MACTFABj6aJam4P585j+PHT3nYKr1o9tCDmdi//6hHPDlfACQkNNJtzSFFlK1b/gMGqJyDAAkxQKQW9+uvfsTjg+Z6mEdEmPDJ1rkwW5pIDeW8L5zdH+5+sIU/+wLAyAcBYlBAWLfqnnvX7WbHTlfjnZWTJI3r3bsOYPjQVzxs2YKfLfyNfhAgBgaEdW3o4y87bzRyP554sidGP+37Djy2bePuO8fil5JyF/eYmGh8lDsbbOFv9IMAMTggdttZ9O41GRUXqzzG8uo1k8HunfB2sG0hbHuI+zFn3nD06HmL0dlw9o8AMTggrHubNn6JSRM9NwgmJydiy3bPdQrzYfdZTBbYcct2xbKFfrgcBEgYAMK6OG3qCry/bqfHuL6/bxfMmDnY5fcn7GfR9e5xHrZXXdUMH3+SJXkfkxEgIkDCBBDWTbZFpKDA7jFuX31tJNgjPWuP/g/NQt6+fA87trBnC/xwOgiQMALkwPdW9PvXDI/xHRUVgT3fvIH69WOcV5zZt1/uB3ukDnu0TrgdBEgYAcK6uvStXLz6iufzbm/vcj2GPdETAx6e5cEAuxi4ImdiuLFBi3SBiku7SUDiUAnWN0yNfDJb8IkgbPv3zz+XevRu6/Z5mjwhRKJsQWVGM0iYzSCsuxcuVKDbXeNQWvar6GBku17Z7tdwPQiQMASEdXnHZ/swasRrPsd9z563IGve8HBlg06xwvUUq7bfc7LWIGfFVkEA4hvH4vNd2YiMjCBA3DaIXtsqFjNHaXuXph4i00s8NVCVbWFnW9ndj+Urxuv+7g0N0tc9BJ1ihekpVm232YOg/95tgosKjw+5F2PHPaj74AuFBgiQMAeEdb/uI0AzMlKwfmNmKIxdv+SoNyDny6txvvwSKqsciI+NQnxsJGLqaXNaS6dYGg6Ric+9iY8++gq5W7KQmtpcw8ihHUprQI7afsXBgnIcKCjH3oPnBcVJSoxBx7bxyEhtgFvbJygWkABRLJ2wI3uBjV5vatI4Vb+F0xKQ97adwIZPT6LykkNy/jdmxGFADzPSLNLuoa8bmACRLDMZKlVAC0BKyi4ja2k+jhSJX3fylucDXVug/33S76VncQgQpVUnP8kKqAVk8+4zWPK/nt8SSk6gjqGlWQwWTLpOsisBIlkqMlSqgBpAik9XYvRLB3w2nZgUjZT0eohrHImio1UoslaiqsL7KVi79FjMGi3tGgwBorTq5CdZATWADJ6ah5JS4afN9x7QFB1vi0VCYpRLLo4aHoUFldiYcwYFP1UK5jl+UCvcekNj0T4QIKISkYFaBZQCwhbk7272vPemYVwkhjzbAq2vre81tZIzl7Foth0nijxvk651WjLleiQm+H4PIwGitvrkL6qAEkC++6kUmW8e8YiddFU9TH411WebUuBgAW6/MQHPPpbuMxYBIlpeMlCrgBJAxr/6I44Uen5jlfV2OmLjvD/6VSoctX0a+2g6unTwfp2EAFFbffIXVUAuIGfOVWHYjP0ecQc+3QKd7mik6LSqfsMINDdH4ehh1zVJ1780xch+3mckAkS0vGSgVgG5gHz2zVm8vuaYS7NNmkdh+sI0xXCMfMGM4mNVWPvmaZcYiQnRWDLF+xP7CRC11Sd/UQXkArLiw2Js3OH6TOQbbm6IYRPMgm35Oq1iMweDI7XNFTieX4l5Ezyvp6yd08Hr3i0CRLS8ZKBWAbmAZK8+hp17z7o02/PhJuje90qPVKTC8ceao3++xzWSxS9cj+ZNhL/NIkDUVp/8RRWQC8i0RYeRd7jMJe6YzGSPr3XlwsECZk8pRv5B1zd7ZT19DTJaNhTsBwEiWl4yUKuAXECylhfg6/2/uDR7/8BE3N3rzwt7SuBgAccKzCDZ49shNUn4mgoBorb65C+qgFxAFr9fiC1fnnGJ2/H2WAx6Jsn5O6Vw2I5V4qVnPdcgK2bc6LyHROggQETLSwZqFZALyJotdqzbcsKlWbbfauqClorhYMG+3H4e7y5y/RaL/X5j9p9PxHTvKwGitvrkL6qAXEAOH7+ACdk/ecRlC/Vvd5cLbh+p+22Vt4SE1h+dro3H5CHen85PgIiWlwzUKiAXENaer02K7vlIgSN33VlsXnfOoyuD+ySj1/94v/uTAFFbffIXVUAJIG9tKELuF26nQzwPcK4P7pQCB0tw5P2HPfKMiTZh9lMZPu80JEBEy0sGahVQAsilagdGzz6A0yWXXJuvA4kUONj9IYtn21BaUu3RjYfvNePBbr8t/L0dBIja6pO/qAJKAGFBv/j2HOav9HwrMH6H5J7ejXF798Zo0sz1fpCaGqAwvwLf7CzD7m3CD3Vok9IAc8e2Fc2dABGViAzUKqAUENbunOUF+Mrtmoh7PmyfVnLLGCQ0jcKxIxWwF1b5vKOQ+S/PbI+ERq5gCfWTAFFbffIXVUANICx4nzF7RduQYzCs71W496+JklwIEEkykZEaBdQCwtpenWvD+9tPqkkDCXFRmD4iA8nNYiTHMQQgs5bmezxALHPGIPzzgTskC0GG+imQm/s1xj+72KWBm6+Lx6THvV9/EMqGXR9ZuqEI+Qoe/SNlQW7YUyyhK6/sPeTf5i3Rr+oUWbICnTo8gYsXXW9UErv+4C14jYPHO5uK8fm3JSgtF36YQ13fNlc1QL/uZnS4Jk5yvnUNDTGD7NpXglfesQoKMGJUH0XCkJM2CixcsFEw0KvPtUNLs/eHLkhp/bfHj5ah1Pls3suorKpBfKNoxDeMRErzK8BesZB4pe+HMoi1YwhA2CfJMy//4PXxMGIi0N/9qwBbILOFcigchgCECb1p5yks31gcCpqHfY7r53dEhEnTV1nqpqlhAGEKzV1hxZ68Et3EosDqFZj99DVo6+XmJPXRtY9gKECYPOybjtWb7dh/xPWONO2lo4hyFGDrgaf7t0TTxurWBHLa1MLWcIDUisKe6Vp88iIKT1VooRPFUKhAuqUBzIkxzp9QPAwLSCgWg3IOPgUIkOCrCWUURAoEPyBm83/BcTfV1Wzo/Sm4r0uzIJKRUjGiAhWVNXho4nceXauJjGx8/Phx4W3CEoTQ9Pu7VhbLMh4Y7N7u5KGt0aldvIR0yIQUkK8Ae3j2W+sLcfKsx9Phd1ltti7yI/7poSkgacnJgzmeX6YmIfIlBbRSgAemH7XZpqmJpykgLJF0s/lDcFwvNUmRLymggQI7rTbbnWrjaA6IExKLhVebGPmTAmoUqI6ISCosLFS35x6ALoCwjrUym5/nOW6Wmk6SLykgVwGe4z4y1av3QEFBgffXVckIqhsgTkiSk7vxwPVwONqB43y/akhG0mRKCrgpwF5vdcBhMh0+VlS0XUt1dAVEy0QpFikQCAUIkECoTm2GjAIESMiUihINhAIESCBUpzZDRgECJGRKRYkGQgECJBCqU5showABEjKlokQDoQABEgjVqc2QUYAACZlSUaKBUIAACYTq1GbIKECAhEypKNFAKECABEJ1ajNkFCBAQqZUlGggFCBAAqE6tRkyChAgIVMqSjQQChAggVCd2gwZBQiQkCkVJRoIBQiQQKhObYaMAv8PBKhCuQB9jQMAAAAASUVORK5CYII=;" vertex="1" parent="8XTIwu--acg-zj0xdVPJ-1">
          <mxGeometry x="213.3" y="483.5" width="139" height="139" as="geometry" />
        </mxCell>
        <mxCell id="8XTIwu--acg-zj0xdVPJ-32" value="" style="verticalLabelPosition=bottom;aspect=fixed;html=1;verticalAlign=top;strokeColor=none;shape=mxgraph.citrix.pda;fillColor=#66B2FF;gradientColor=#0066CC;fontSize=14;" vertex="1" parent="8XTIwu--acg-zj0xdVPJ-1">
          <mxGeometry x="1420" y="888.5" width="30" height="61" as="geometry" />
        </mxCell>
        <mxCell id="8XTIwu--acg-zj0xdVPJ-33" value="" style="verticalLabelPosition=bottom;aspect=fixed;html=1;verticalAlign=top;strokeColor=none;shape=mxgraph.citrix.pda;fillColor=#66B2FF;gradientColor=#0066CC;fontSize=14;" vertex="1" parent="8XTIwu--acg-zj0xdVPJ-1">
          <mxGeometry x="1290" y="880" width="30" height="61" as="geometry" />
        </mxCell>
        <mxCell id="8XTIwu--acg-zj0xdVPJ-34" value="" style="verticalLabelPosition=bottom;sketch=0;aspect=fixed;html=1;verticalAlign=top;strokeColor=none;align=center;outlineConnect=0;shape=mxgraph.citrix.tablet_2;" vertex="1" parent="8XTIwu--acg-zj0xdVPJ-1">
          <mxGeometry x="1130" y="855" width="82" height="86" as="geometry" />
        </mxCell>
        <mxCell id="8XTIwu--acg-zj0xdVPJ-35" value="" style="verticalLabelPosition=bottom;sketch=0;aspect=fixed;html=1;verticalAlign=top;strokeColor=none;align=center;outlineConnect=0;shape=mxgraph.citrix.desktop;" vertex="1" parent="8XTIwu--acg-zj0xdVPJ-1">
          <mxGeometry x="1380" y="380" width="89" height="98" as="geometry" />
        </mxCell>
        <mxCell id="8XTIwu--acg-zj0xdVPJ-36" value="&lt;font color=&quot;#000000&quot; style=&quot;font-size: 20px;&quot;&gt;2.5G交换机&lt;/font&gt;" style="fontColor=#0066CC;verticalAlign=top;verticalLabelPosition=bottom;labelPosition=center;align=center;html=1;outlineConnect=0;fillColor=#CCCCCC;strokeColor=#6881B3;gradientColor=none;gradientDirection=north;strokeWidth=2;shape=mxgraph.networks.router;fontSize=14;" vertex="1" parent="8XTIwu--acg-zj0xdVPJ-1">
          <mxGeometry x="1150" y="414" width="100" height="30" as="geometry" />
        </mxCell>
        <mxCell id="8XTIwu--acg-zj0xdVPJ-37" value="" style="edgeStyle=none;rounded=0;orthogonalLoop=1;jettySize=auto;html=1;strokeWidth=2;fontSize=20;fontColor=#000000;endArrow=none;endFill=0;" edge="1" parent="8XTIwu--acg-zj0xdVPJ-1" source="8XTIwu--acg-zj0xdVPJ-29" target="8XTIwu--acg-zj0xdVPJ-36">
          <mxGeometry relative="1" as="geometry">
            <mxPoint x="1170.8216360116166" y="960" as="sourcePoint" />
            <mxPoint x="1168.5108906098744" y="526.0000000000002" as="targetPoint" />
          </mxGeometry>
        </mxCell>
      </root>
    </mxGraphModel>
  </diagram>
</mxfile>
